<svg version="1.0" xmlns="http://www.w3.org/2000/svg"
  viewBox="0 0 634.000000 331.000000" preserveAspectRatio="xMidYMid meet">

  <g transform="translate(0.000000,331.000000) scale(0.100000,-0.100000)" fill="#000000" stroke="none">
    <path d="M3333 3291 c-17 -21 -373 -894 -373 -916 0 -8 30 -14 86 -19 48 -3
88 -5 90 -4 1 2 -6 28 -16 58 -24 68 -24 101 -4 169 53 180 281 240 426 112
115 -101 105 -305 -19 -396 -23 -16 -42 -35 -42 -41 -2 -22 331 -154 386 -154
10 0 13 6 9 18 -59 158 -454 1132 -470 1155 -27 39 -50 45 -73 18z" />
    <path d="M3324 2680 c-112 -26 -175 -148 -130 -253 16 -38 76 -94 112 -103 44
-11 133 1 162 23 137 101 88 310 -78 336 -19 3 -49 2 -66 -3z" />
    <path d="M2700 2241 c-117 -25 -225 -63 -322 -112 -78 -39 -208 -117 -208
-124 0 -2 31 7 68 19 106 36 204 50 362 49 232 -1 421 -40 720 -148 217 -79
293 -100 416 -116 317 -40 655 60 894 265 39 33 38 33 -47 -11 -34 -18 -102
-45 -150 -60 -84 -26 -98 -27 -288 -27 -192 0 -204 1 -315 31 -63 17 -160 50
-215 74 -392 165 -412 170 -650 175 -149 3 -195 1 -265 -15z" />
    <path d="M1657 2078 l-188 -100 117 -226 c64 -125 121 -232 126 -239 8 -10 18
-9 46 3 l36 15 71 -71 c39 -38 75 -70 81 -70 6 0 79 70 162 155 l151 154 -34
7 c-27 5 -34 11 -37 33 -2 20 -9 27 -30 29 -21 3 -27 9 -30 30 -2 21 -9 28
-30 30 -21 3 -27 9 -30 30 -2 21 -9 28 -31 30 -21 3 -29 10 -33 32 -5 21 -13
29 -35 34 -25 5 -29 10 -29 40 0 27 -5 35 -23 40 -20 5 -23 11 -19 36 4 26 1
32 -18 37 -18 5 -21 11 -18 39 2 20 0 34 -7 33 -5 -1 -95 -46 -198 -101z m177
47 c-4 -9 4 -19 21 -27 22 -10 26 -17 21 -39 -4 -21 0 -28 21 -38 19 -9 24
-17 21 -36 -4 -18 1 -29 19 -41 19 -12 24 -22 20 -41 -3 -19 1 -27 20 -36 20
-9 24 -16 19 -39 -5 -24 -1 -30 20 -39 22 -8 25 -14 21 -36 -3 -18 0 -31 10
-39 13 -9 -15 -27 -151 -98 -92 -48 -169 -86 -170 -84 -2 2 -54 99 -115 217
-78 147 -109 217 -102 224 14 14 303 165 318 166 7 1 10 -6 7 -14z m216 -284
c0 -25 4 -30 28 -33 21 -2 28 -9 30 -30 3 -21 9 -27 30 -30 20 -2 28 -9 30
-27 2 -13 12 -26 23 -28 11 -3 19 -8 17 -12 -2 -3 -63 -64 -136 -135 l-132
-130 -60 59 c-33 33 -60 63 -60 67 0 4 66 42 147 84 132 70 144 78 128 91 -11
7 -22 13 -27 13 -4 0 -8 13 -8 30 0 19 -7 33 -20 40 -28 15 -26 70 2 70 4 0 8
-13 8 -29z" />
    <path d="M1998 2009 c-10 -5 -18 -15 -18 -21 0 -7 5 -6 14 1 21 18 75 17 93
-1 14 -14 11 -17 -21 -28 -20 -6 -36 -16 -36 -22 0 -6 7 -7 18 -3 9 4 30 10
46 13 l29 5 -6 -47 c-7 -51 7 -56 18 -6 9 41 22 38 36 -9 8 -28 8 -43 0 -59
-16 -29 -13 -41 4 -18 8 11 15 36 15 55 0 29 -9 46 -43 82 -63 68 -105 84
-149 58z" />
    <path d="M2781 1938 c-42 -110 -200 -496 -223 -546 -57 -120 -107 -159 -231
-176 -71 -10 -82 -15 -82 -32 0 -18 11 -19 351 -22 315 -2 352 -1 358 14 10
25 -2 34 -47 34 -59 0 -115 18 -127 40 -27 51 -9 117 131 489 39 101 68 186
65 189 -7 6 -133 31 -164 32 -14 0 -26 -8 -31 -22z" />
    <path d="M3680 1714 c0 -1 32 -89 71 -196 101 -273 101 -273 81 -291 -9 -7
-25 -17 -35 -20 -31 -11 -13 -32 34 -39 66 -10 652 -9 668 1 30 19 3 38 -64
45 -36 4 -84 14 -106 22 -75 31 -143 132 -240 359 l-46 110 -104 -3 c-57 -1
-139 1 -181 6 -43 4 -78 7 -78 6z" />
    <path d="M271 859 c-5 -13 -28 -69 -50 -123 -23 -55 -41 -101 -41 -103 0 -1
11 -3 24 -3 20 0 28 9 44 53 19 50 20 51 30 27 6 -14 20 -46 31 -73 20 -48 54
-71 92 -65 16 3 10 22 -41 147 -33 80 -64 149 -69 154 -7 7 -14 2 -20 -14z" />
    <path d="M2556 765 c-25 -63 -46 -120 -46 -125 0 -6 9 -10 20 -10 15 0 27 14
43 52 l23 52 25 -69 c24 -65 28 -70 68 -83 23 -8 44 -12 47 -9 3 2 -17 60 -45
128 -61 155 -72 179 -82 179 -4 0 -28 -52 -53 -115z" />
    <path d="M4912 860 c-5 -14 -17 -43 -27 -65 -9 -22 -27 -68 -40 -102 l-24 -63
25 0 c14 0 27 7 31 18 3 9 12 33 20 52 l15 35 25 -67 c22 -60 29 -68 64 -82
22 -9 44 -16 49 -16 14 0 -85 256 -115 296 -13 18 -14 18 -23 -6z" />
    <path d="M820 728 c0 -79 -3 -187 -7 -241 -6 -91 -8 -99 -30 -108 -12 -4 -23
-11 -23 -14 0 -3 42 -5 93 -4 85 1 90 2 62 14 -38 17 -42 36 -44 205 l-1 135
185 -185 c101 -101 187 -182 189 -179 3 3 8 104 11 224 4 121 8 230 11 243 2
13 15 27 27 32 15 6 -6 9 -68 8 -49 0 -80 -3 -68 -5 12 -2 26 -10 31 -16 6 -7
13 -86 17 -177 l6 -165 -186 188 c-103 103 -191 187 -196 187 -5 0 -9 -64 -9
-142z" />
    <path d="M1650 758 c0 -62 -3 -171 -7 -241 -6 -123 -7 -129 -30 -138 -12 -4
-23 -11 -23 -14 0 -3 42 -5 93 -4 88 1 90 1 60 15 -38 16 -41 32 -46 222 l-3
123 188 -188 c103 -103 189 -185 192 -183 2 3 8 113 13 245 l8 239 25 13 c22
11 14 13 -65 11 -49 0 -80 -3 -68 -5 12 -2 26 -10 31 -16 9 -11 28 -337 20
-337 -2 0 -87 83 -188 185 -101 102 -188 185 -192 185 -4 0 -8 -51 -8 -112z" />
    <path d="M3146 848 c-3 -13 -6 -113 -6 -223 0 -110 -3 -209 -6 -221 -3 -11
-18 -25 -32 -31 -22 -9 -10 -11 68 -12 56 -1 90 3 85 8 -6 5 -19 11 -30 13
-17 3 -21 14 -26 73 -4 39 -7 114 -8 168 l-1 99 185 -189 c149 -151 187 -185
195 -173 5 8 10 97 10 201 0 230 5 274 34 287 16 8 0 11 -69 10 -70 0 -83 -2
-59 -9 29 -8 32 -13 38 -61 3 -29 6 -107 6 -173 l-1 -120 -182 188 c-100 103
-185 188 -188 187 -4 0 -9 -10 -13 -22z" />
    <path d="M6130 860 c-69 -3 -116 -7 -104 -8 42 -4 44 -16 44 -244 l0 -218 -27
-13 c-24 -10 -6 -12 122 -15 82 -1 155 0 162 2 8 4 13 23 13 53 l0 48 -20 -32
c-19 -31 -23 -33 -80 -33 -74 0 -80 9 -80 124 l0 86 50 0 c42 0 55 -5 75 -26
23 -25 25 -25 25 -7 0 11 3 34 6 50 l6 30 -81 -5 -81 -5 0 93 0 93 46 -7 c26
-3 55 -6 66 -6 11 0 23 -11 30 -27 l11 -28 7 30 c17 67 13 75 -27 73 -21 -1
-94 -5 -163 -8z" />
    <path d="M3935 853 c44 -11 45 -15 45 -244 l0 -219 -26 -11 c-15 -5 -25 -12
-22 -14 2 -3 77 -5 165 -6 144 -1 165 1 212 21 102 44 156 138 149 259 -3 58
-9 77 -34 113 -34 49 -81 83 -133 98 -20 5 -112 9 -206 9 -93 -1 -161 -4 -150
-6z m266 -34 c65 -14 141 -83 158 -144 25 -92 9 -184 -41 -232 -43 -41 -76
-53 -147 -53 -95 0 -95 0 -100 200 -1 94 0 187 3 206 6 31 10 34 41 34 19 0
57 -5 86 -11z" />
    <path d="M5438 845 l32 -14 0 -213 c0 -117 -4 -218 -8 -224 -4 -6 -16 -15 -27
-20 -13 -6 32 -10 139 -12 88 -1 164 2 169 7 14 14 21 91 8 91 -6 0 -11 -6
-11 -13 0 -29 -36 -47 -93 -47 -88 0 -87 -2 -87 229 0 207 1 213 45 224 11 2
-29 5 -90 5 -103 1 -108 0 -77 -13z" />
    <path d="M135 600 c-22 -3 -55 -13 -74 -21 l-35 -15 70 0 c44 0 102 -10 161
-27 109 -32 182 -34 241 -7 50 23 55 32 10 19 -51 -14 -81 -11 -180 20 -115
36 -142 41 -193 31z" />
    <path d="M2465 600 c-22 -5 -56 -16 -75 -24 l-35 -16 45 5 c48 7 165 -14 226
-40 47 -20 138 -19 197 1 57 19 72 37 20 22 -47 -13 -118 -3 -197 26 -77 29
-129 37 -181 26z" />
    <path d="M4772 595 c-69 -19 -102 -38 -51 -29 41 6 133 -9 220 -36 79 -25 161
-25 217 0 50 23 55 32 10 19 -52 -14 -81 -11 -180 20 -124 40 -153 43 -216 26z" />
    <path d="M110 468 c-21 -43 -44 -78 -58 -84 -42 -21 -35 -24 54 -24 84 1 87 2
62 15 l-27 15 25 72 c13 39 24 73 24 75 0 2 -10 3 -23 3 -18 0 -29 -14 -57
-72z" />
    <path d="M2447 492 c-25 -70 -54 -112 -76 -112 -11 0 -23 -4 -26 -10 -4 -6 26
-10 82 -9 71 0 84 2 66 11 -29 14 -29 23 2 103 l24 65 -27 0 c-24 0 -30 -6
-45 -48z" />
    <path d="M4748 460 c-28 -62 -41 -80 -57 -80 -11 0 -23 -4 -26 -10 -4 -6 26
-10 82 -9 71 0 84 2 66 11 -29 14 -29 34 1 108 l25 60 -28 0 c-24 0 -31 -9
-63 -80z" />
    <path d="M388 483 c-22 -5 -22 -11 -3 -56 8 -20 12 -43 9 -51 -5 -14 6 -16 81
-16 55 0 84 4 80 10 -3 6 -15 10 -26 10 -12 0 -29 18 -50 55 -31 55 -42 61
-91 48z" />
    <path d="M2708 483 c-15 -4 -15 -8 -2 -46 8 -23 13 -50 10 -59 -4 -16 5 -18
82 -18 85 0 92 3 50 24 -13 6 -34 33 -48 59 -25 48 -40 54 -92 40z" />
    <path d="M5010 481 c0 -5 7 -27 15 -50 8 -23 12 -48 9 -56 -5 -13 8 -15 81
-15 55 0 84 4 80 10 -3 6 -15 10 -26 10 -12 0 -29 18 -50 55 -29 52 -33 55
-70 55 -21 0 -39 -4 -39 -9z" />
    <path d="M4860 208 c0 -3 -3 -15 -6 -25 -6 -15 -4 -16 7 -5 7 6 26 12 41 12
l28 0 0 -72 c0 -52 -4 -76 -17 -90 -15 -17 -14 -18 36 -18 l51 0 -16 25 c-12
19 -15 39 -11 87 4 35 6 66 6 70 1 11 46 -4 59 -20 10 -14 12 -12 12 14 l0 29
-95 0 c-52 0 -95 -3 -95 -7z" />
    <path d="M817 192 c-29 -32 -21 -58 29 -92 33 -24 44 -37 42 -53 -4 -32 -36
-33 -69 -1 -26 25 -29 26 -29 8 0 -31 20 -44 67 -44 75 0 105 57 54 100 -10 8
-31 24 -46 36 -20 14 -27 25 -22 37 9 24 42 21 67 -5 l22 -23 -4 25 c-3 22 -9
25 -49 28 -34 2 -49 -2 -62 -16z" />
    <path d="M1103 199 c14 -8 17 -24 17 -87 0 -47 -5 -83 -12 -90 -9 -9 -1 -12
37 -12 38 0 46 3 37 12 -7 7 -12 29 -12 51 l0 38 48 -3 c43 -3 47 -5 50 -31 2
-17 -4 -37 -14 -48 -17 -18 -16 -19 37 -19 47 1 52 2 37 14 -14 11 -18 29 -18
89 0 62 3 78 18 86 13 8 5 10 -35 11 l-52 0 16 -28 c25 -44 12 -64 -39 -60
-39 3 -43 6 -46 31 -2 16 2 35 9 43 10 12 3 14 -42 14 -42 -1 -50 -3 -36 -11z" />
    <path d="M1541 194 c-13 -9 -29 -32 -37 -50 -27 -65 24 -134 99 -134 21 0 51
7 66 15 58 29 66 124 14 165 -32 25 -108 27 -142 4z m104 -14 c28 -31 31 -100
5 -132 -12 -16 -29 -28 -39 -28 -30 0 -62 44 -64 87 -3 77 55 120 98 73z" />
    <path d="M1888 199 c16 -17 16 -161 0 -177 -9 -9 0 -12 42 -12 46 0 51 2 36
13 -14 10 -16 26 -14 91 3 83 13 100 42 71 21 -21 20 -53 -1 -78 -18 -20 -17
-20 12 -13 51 12 69 53 41 91 -11 16 -29 20 -93 23 -64 3 -76 2 -65 -9z" />
    <path d="M2228 199 c16 -17 16 -161 0 -177 -9 -9 0 -12 42 -12 45 0 51 2 37
13 -12 9 -17 30 -18 83 -2 79 4 96 29 87 38 -14 44 -63 10 -89 -23 -16 -23
-16 11 -10 43 8 61 23 61 51 0 40 -35 59 -113 63 -59 3 -70 2 -59 -9z" />
    <path d="M2570 191 c5 -11 10 -51 10 -90 0 -56 -3 -72 -17 -80 -14 -8 -5 -10
37 -11 42 0 51 3 42 12 -17 17 -16 175 1 181 6 3 -10 6 -36 6 -44 1 -47 0 -37
-18z" />
    <path d="M2813 199 c14 -8 17 -24 17 -89 0 -65 -3 -81 -17 -89 -14 -8 -9 -10
26 -11 42 0 43 1 28 18 -18 20 -25 122 -8 122 5 0 37 -31 71 -70 34 -38 66
-67 71 -64 5 3 9 42 9 88 0 50 5 87 12 94 9 9 4 12 -26 12 -34 0 -36 -1 -22
-16 10 -10 16 -33 16 -62 l0 -47 -61 63 c-53 54 -66 62 -97 62 -30 -1 -34 -3
-19 -11z" />
    <path d="M3240 198 c-39 -20 -62 -76 -50 -119 14 -49 57 -72 130 -67 53 3 55
4 58 33 2 16 9 33 15 37 7 4 -10 7 -38 7 -27 0 -44 -3 -37 -6 18 -7 16 -63 -4
-63 -52 0 -93 68 -74 126 19 57 75 72 118 32 l24 -23 -4 25 c-3 23 -8 25 -58
28 -30 1 -66 -4 -80 -10z" />
    <path d="M3842 185 c-37 -31 -48 -75 -32 -116 16 -39 57 -59 118 -59 50 0 72
12 72 42 0 14 -4 13 -25 -7 -42 -43 -96 -29 -115 30 -29 87 52 163 110 105
l20 -20 0 25 c0 24 -3 25 -59 25 -49 0 -65 -4 -89 -25z" />
    <path d="M4164 194 c24 -23 22 -152 -1 -170 -15 -11 -5 -13 75 -14 50 0 92 4
92 9 0 5 3 18 7 28 6 17 6 17 -14 1 -11 -10 -36 -18 -56 -18 -36 0 -37 1 -37
40 0 33 3 40 19 40 11 0 27 -7 35 -16 15 -14 16 -12 16 17 0 26 -3 30 -12 21
-7 -7 -22 -12 -35 -12 -20 0 -23 5 -23 35 0 33 2 35 35 35 22 0 38 -6 44 -17
9 -15 10 -14 11 10 l0 27 -86 0 c-78 0 -84 -1 -70 -16z" />
    <path d="M4493 196 c24 -18 25 -141 0 -168 -15 -17 -14 -18 28 -18 35 1 40 3
27 11 -14 8 -18 23 -18 69 0 33 3 60 6 60 3 0 36 -32 72 -71 l67 -72 6 86 c3
48 12 93 19 102 11 13 8 15 -24 15 -36 0 -37 0 -22 -22 17 -24 22 -98 7 -98
-4 0 -30 27 -57 59 -45 55 -52 60 -89 60 -35 0 -38 -1 -22 -13z" />
    <path d="M5210 195 c7 -9 13 -45 14 -86 0 -59 -3 -73 -19 -85 -17 -12 -8 -14
73 -14 87 0 93 1 101 22 11 29 5 37 -12 14 -9 -13 -24 -17 -52 -14 -38 3 -40
4 -40 38 0 32 2 35 25 31 14 -1 28 -8 32 -15 4 -6 8 5 8 24 0 26 -3 31 -12 22
-7 -7 -22 -12 -35 -12 -20 0 -23 5 -23 35 0 33 2 35 33 35 18 0 38 -5 45 -12
15 -15 26 -4 19 17 -5 12 -24 15 -88 15 -72 0 -80 -2 -69 -15z" />
    <path d="M5544 193 c4 -9 9 -42 13 -74 4 -45 2 -64 -11 -84 l-16 -25 49 0 49
0 -14 29 c-8 16 -11 36 -8 46 6 14 14 8 49 -29 30 -33 49 -46 70 -46 l27 0
-36 40 c-40 45 -43 52 -20 70 22 19 14 62 -16 77 -14 7 -51 13 -84 13 -50 0
-57 -2 -52 -17z m97 -3 c26 -15 26 -66 -1 -75 -38 -12 -43 0 -30 83 0 5 12 2
31 -8z" />
  </g>
</svg>