<svg id="Layer_2" xmlns="http://www.w3.org/2000/svg" viewBox="0 0 558.57 558.95">
  <path
    d="M0,279.33c0-39.06,0-78.12,0-117.18C-.01,102.08,33.48,46.64,86.71,18.68,110.45,6.22,135.74.01,162.54,0c77.93-.01,155.87,0,233.8,0,76.43,0,142.73,53.69,158.63,128.45,2.38,11.17,3.56,22.46,3.57,33.86.02,78.12.05,156.24,0,234.36-.05,76.9-54.12,143.27-129.32,158.88-10.8,2.24-21.73,3.36-32.76,3.37-78.18.02-156.37.06-234.55,0-76.78-.06-143.45-54.68-158.63-129.83C1.09,418.27,0,407.35,0,396.32c0-39,0-78,0-117ZM50.58,279.49c0,38.81-.08,77.62.08,116.43.03,6.71.62,13.51,1.75,20.12,9.08,52.93,55.81,92.24,109.57,92.26,78.25.04,156.49.05,234.74-.06,6.15,0,12.38-.59,18.45-1.65,53.92-9.42,92.78-55.78,92.78-110.46,0-77.87.04-155.74-.08-233.61-.01-6.77-.62-13.64-1.82-20.31-9.49-52.83-55.93-91.57-109.77-91.62-78.06-.07-156.12-.08-234.17.08-7.45.02-15.03.78-22.31,2.31-52.44,10.98-89.2,56.5-89.21,110.07,0,38.81,0,77.62,0,116.43Z" />
  <path
    d="M135.76,279.15c.04-79.26,64.39-143.45,143.77-143.4,79.28.06,143.34,64.5,143.25,144.1-.09,79.41-64.46,143.37-144.23,143.3-78.82-.07-142.83-64.62-142.79-144ZM279.44,186.35c-51.2-.01-93.04,41.6-93.09,92.6-.05,51.73,41.46,93.59,92.83,93.61,51.37.01,92.98-41.72,92.99-93.26.02-51.09-41.73-92.93-92.74-92.94Z" />
  <path
    d="M428.68,163.79c-17.51.11-34.43-13.67-33.73-34.95.59-17.98,14.59-31.82,33.27-32.1,17.39-.27,34.39,13.69,33.62,35.01-.65,17.89-14.63,31.56-33.16,32.04Z" />
</svg>