<svg xmlns="http://www.w3.org/2000/svg" viewBox="0 0 508.79 508.62">
  <path
    d="M179.29,496.73c12.74-13.12,19.57-29.09,24.93-45.57,5.9-18.16,10.66-36.69,15.82-55.09,1.83-6.53,4.61-7.42,9.69-2.96,10.6,9.31,23.7,12.56,37.09,14.66,40.14,6.28,73.19-8.22,101.57-35.55,21.1-20.33,32.34-46.11,39.38-73.93,8.66-34.24,8.45-68.42-3.97-101.71-14.93-40.03-44.59-66.03-83.07-82.34-83.17-35.25-181.94,5.96-214.93,89.89-14.23,36.22-15.35,73.01.31,109.39,4.39,10.22,10.76,19.21,19.41,26.29,3.16,2.58,6.9,4.72,10.72,6.15,7.13,2.67,14.03.25,18.61-5.79,7.36-9.68,6.88-23.63-1.35-32.66-14.21-15.57-18.88-33.88-16.52-54.52,1.93-16.81,5.19-33.21,12.99-48.4,12.59-24.51,33.1-39.94,58.08-50.09,29.07-11.81,58.72-15.85,89.15-5.64,35.09,11.78,55.65,39.44,58.01,76.44,2.42,37.78-4.6,73.23-24.64,105.63-9.01,14.56-20.5,26.7-36.98,33.01-18.88,7.24-38.78,1.46-46.9-14.75-3.54-7.07-5.32-15.42-6.16-23.37-1.56-14.86,3.22-28.94,7.47-42.98,4.96-16.38,10.66-32.59,14.59-49.22,4.28-18.12-6.4-30.63-25.05-31.25-26.35-.86-49.63,19.18-53.48,45.68-2.34,16.15,1.11,31.01,8.48,45.31,1.17,2.26,1.7,5.45,1.14,7.9-13.25,58.55-26.69,117.05-40.08,175.56-.7,3.06-1.28,6.15-1.92,9.26C59.07,449.52-24.71,333.59,6.74,196.97,39.87,53.04,187.86-32.71,330.3,11.79c140.21,43.81,215.22,196.68,160.54,335.29-55.16,139.82-203.57,186.01-311.55,149.65Z" />
</svg>