<svg xmlns="http://www.w3.org/2000/svg" viewBox="0 0 550.66 550.95">
  <path
    d="M550.66,275.61c-.16,152.39-123.46,275.54-275.66,275.34C122.95,550.75-.16,427.46,0,275.31.16,122.58,123.62-.25,275.49,0c152.59.25,275.34,123.5,275.17,275.61ZM113.93,130.76c39.23,54.86,78.22,109.37,117.23,163.92-39.1,41.82-78.01,83.45-116.93,125.07.07.15.15.29.22.44.66,0,1.32,0,1.99,0,12.69,0,25.37-.02,38.06.04,1.45,0,2.41-.45,3.38-1.49,15.63-16.78,31.29-33.52,46.95-50.27,12.16-13.01,24.31-26.02,36.47-39.03,2.71-2.9,5.44-5.77,8.22-8.72.38.47.63.74.85,1.04,23.07,32.24,46.15,64.47,69.19,96.72.82,1.15,1.61,1.76,3.16,1.76,37.25-.05,74.49-.04,111.74-.04.64,0,1.29,0,2.3,0-40.71-56.95-81.13-113.49-121.6-170.1,37.2-39.79,74.22-79.39,111.56-119.33-14.32,0-28.01-.02-41.69.05-.67,0-1.49.54-1.99,1.07-13.59,14.49-27.15,29.01-40.72,43.52-11.81,12.64-23.62,25.3-35.44,37.94-3.35,3.58-6.72,7.15-10.11,10.76-.38-.48-.67-.81-.92-1.17-21.58-30.15-43.18-60.3-64.72-90.49-.9-1.27-1.81-1.73-3.36-1.73-37,.05-73.99.04-110.99.04-.81,0-1.62,0-2.86,0Z" />
  <path
    d="M174.02,161.62c11.24,0,21.99,0,32.74,0,2.37,0,5.11-.67,7.01.3,1.89.96,2.97,3.57,4.35,5.49,26.29,36.7,52.59,73.39,78.83,110.11,26.21,36.67,52.36,73.37,78.53,110.06.31.44.6.9,1.11,1.65-1.05,0-1.77,0-2.49,0-11.69,0-23.37-.04-35.06.05-1.78.01-2.8-.57-3.8-1.98-20.13-28.2-40.31-56.37-60.48-84.55-5.27-7.36-10.54-14.72-15.8-22.09-27.85-39.02-55.7-78.05-83.55-117.07-.38-.54-.76-1.09-1.37-1.97Z" />
</svg>