<svg xmlns="http://www.w3.org/2000/svg" viewBox="0 0 223.27 38.57">
  <style>
    path {
      fill: currentColor;
    }
  </style>
  <path
    d="m222.23,1.3c-16.32-.09-32.65-.19-48.97-.28-28.9-.16-57.8-.33-86.69-.49-14.14-.08-28.28-.16-42.41-.24C29.72.21,15.22-.28.8.22-.27.26-.26,1.83.8,1.89c16.16.81,32.43.43,48.6.53,1.64,0,3.29.02,4.93.03-.57.54-1.03,1.21-1.33,1.99-1.1,2.88.13,6.06,2.57,7.83,2.75,1.98,6.31,1.77,9.34.56,4.55-1.83,8.15-5.41,12.64-7.42,4.82-2.16,10.07-2.91,15.32-2.42.1,0,.17-.04.2-.11,2.88.2,5.64.71,8.35,2.47,3.47,2.25,6.16,5.84,7.11,9.89,2.24,9.51-4.61,18.92-14.32,19.77-4.59.4-9.3-1.14-12.28-4.74-3.53-4.27-2.3-9.05.54-13.32,2.68-4.02,7.09-6.2,11.61-3.42,2.31,1.42,3.79,4.17,3.21,6.93-.38,1.83-2.16,3.71-4.15,3.72-2.42.01-4.05-2.51-3.05-4.71.45-.98-.94-1.85-1.48-.86-2.1,3.81,1.1,8.21,5.4,7.52,5.07-.81,6.68-6.73,4.51-10.88-1.85-3.54-6-5.38-9.88-5.01-4.97.47-8.17,4.99-10.01,9.25-4.52,10.43,6.31,18.62,16.06,17.53,10.18-1.14,17.49-10.66,15.86-20.82-1.08-6.72-5.61-11.35-11.31-13.48,7.96.05,15.92.1,23.89.14-9.44,1.33-14.35,12.35-11.53,21.7,2.72,9.01,11.66,15.61,21.18,13.67,9.3-1.89,15.2-11.53,11.46-20.56-1.74-4.19-5.58-7.38-10.17-7.83-4.32-.42-8.85,2.14-10.04,6.47-.97,3.52.27,8.99,4.41,9.79,3.96.78,6.62-2.83,5.86-6.47-.22-1.07-1.83-.61-1.63.45.47,2.8-.86,4.16-3.97,4.1-.72-.63-1.45-1.25-2.17-1.88-.82-1.14-.96-3.69-.69-5,.59-2.82,3.09-4.8,5.81-5.31,5.03-.95,9.7,2.81,11.15,7.45,2.71,8.68-3.91,16.59-12.6,17.19-8.57.59-15.76-6.24-17.4-14.35-1.99-9.83,4.85-18.66,15.04-18.27.28.01.45-.2.5-.44,8.79.07,17.4,1.57,25.36,5.53,4.65,2.32,12.72,7.48,16.97,1.53,1.99-2.78,1.11-5.88-1.13-7.51,17.56.11,35.12.21,52.68.32,1.39,0,1.38-2.14,0-2.15Zm-142.11,1.3c-2.72.85-5.34,2.12-7.73,3.65-4.19,2.68-9.64,7.93-15.04,5.16-2.51-1.29-3.97-4.54-2.4-7.12.54-.89,1.39-1.54,2.34-1.83.77,0,1.54,0,2.31.01.22.08.44.17.65.29,1.26.58,1.72,1.5,1.35,2.77.44,2.36-.74,2.44-3.51.22,0-.8-1.14-.93-1.36-.18-1.48,4.95,7.31,5.47,6.84-.42-.09-1.1-.44-1.98-.98-2.66,5.84.04,11.68.07,17.53.11Zm69.93,3.14c-3.14-1.23-6.4-2.17-9.72-2.78,7.42.04,14.85.09,22.27.13-.85.68-1.39,1.66-1.3,2.89.14,1.83,1.49,2.96,3.22,2.71.66-.1.59-1.12,0-1.27-1.1-2.74-.57-3.99,1.59-3.77.48.08.97.16,1.46.24,2.36.76,3.38,3.12,2.21,5.27-1.69,3.1-5.96,2.83-8.8,1.8-3.78-1.37-7.16-3.76-10.93-5.24Z" />
</svg>