<svg xmlns="http://www.w3.org/2000/svg" viewBox="0 0 598.68 584.35">
  <style>
    .cls-1 {
      fill: #FFFFFF;
      stroke-width: 0px;
    }
  </style>
  <g class="cls-1">
    <path
      d="M1261,496c-4.7,4.2-8.92,9-14.28,12.35-2.78,1.76-5.46,3.09-9.27,2.38-2.82-.53-6.12,1-9.1,2-7.9,2.56-15.75,5.29-23.62,7.95-2.39.81-4.79,1.44-7.29-.25,1.33-5.85-1.16-10.57-5-14.89,2.32-1.32,4.63-1.35,6.91-1.49,9.64-.61,19.32-.6,28.91-2a26.39,26.39,0,0,0,10.27-3.49,91.4,91.4,0,0,1,13.92-6.7c4.42-1.77,6-1.49,8.57,2.15Z"
      transform="translate(-662.32 -248.35)" />
    <path
      d="M1112.05,473.93c-3.22,5.58-1.57,9.12,5.35,11.51-3.14,4.56-3.74,4.9-9.68,5.23a29.84,29.84,0,0,1-1.24,8.36,3.53,3.53,0,0,0,3,2.36c2.44-2.84,5.84-4.08,9.37-5.13,12.11-3.61,24.12-7.6,36.63-9.71,2.13-.36,4.28-.59,6.43-.82,6.72-.74,7.1-.55,10.53,5,1.26.48,2.66-.6,3.91.4,3,3.14,3.44,7.41,4.3,11.4.63,3-.82,3.69-5.45,3a10,10,0,0,0-.87,1.66,6,6,0,0,0,.07,1.73c4.54-.87,8.93-1.57,13.26-2.58,2.73-.64,4.47.4,5.94,2.49,2.56,3.62,3.13,7.57,2.11,12.13-5.87.59-11,3.73-16.81,4.57-1.26,1.67-.42,4-1.71,5.62-1,1.49-2.88.5-4.22,1.48a3.91,3.91,0,0,0-.6,1.19,8.34,8.34,0,0,0-.19,3c1.83,8.62-3.3,13.25-10,16.31a22.22,22.22,0,0,0-10.07,9c-2.83,4.5-7.27,7.71-12.1,10.14-.88.44-1.68,1-2.57,1.61a79.62,79.62,0,0,1-1.93,9.84c-.82,3,.42,5.9,1.37,8.74s1.75,5.76.1,8.67l.14-.14a1.13,1.13,0,0,0-1.14,1.14l.14-.14a4,4,0,0,0-3.15,2.13l.17-.14c-3.28.36-6.57,1.29-9.76-.35-.87-.45-2.29-.46-2.51-1.45-.83-3.72-4.13-6.38-4.13-10.5,0-3-.69-5.9-1.13-9.24-6.82,1.54-13.38,3-20,4a48.06,48.06,0,0,1-20-1.67c-1.9,5.12-3.48,6.15-8.58,5.7a94.47,94.47,0,0,1-14-2.56,17.06,17.06,0,0,0-2.22,4.8c-9.91,25.45-27.26,44.27-51.27,57a77.22,77.22,0,0,1-39,9.06,90.58,90.58,0,0,1-59.28-24c-15.45-13.95-26.45-30.6-31.86-50.81a27.89,27.89,0,0,0-1.4-3.49c-2-.51-3.36,1.26-5.07.67a38.43,38.43,0,0,0-.15-5.48,117.43,117.43,0,0,0-19.38-47.19c-.9-1.32-1.58-3-3.4-3.41a3.25,3.25,0,0,0-3-3.13,5.66,5.66,0,0,0,3,3.17c1.79,3.15,3.75,6.21,5.33,9.47,6.88,14.18,13.4,28.52,15.77,44.31.18,1.23.33,2.37,2,2.13-.36.55-.8,1.6-1.06,1.56-3.6-.55-6.49,3.58-10.27,1.53-4.27,2.07-8.31.93-12.67-.21-5.06-1.33-10.71.24-15.59-2.63-4.86,1.38-8.19-3.95-13-2.94-1.53.32-2.39-1.62-3.88-2.27-2,2.26-2.6,5.06-3.36,7.72-1,3.53-1.93,7.06-4.69,9.74-1.3,1.27-1.39,3-1.62,4.61a129.47,129.47,0,0,0,0,36.25,29.77,29.77,0,0,1,.3,3,2.85,2.85,0,0,1-.34.93c-2.71,2-5.77,2.17-9,1.71l.15.13c-1.77-2.7-.81-5.8-1.27-8.7a75.2,75.2,0,0,0-5.48-19.07,19.52,19.52,0,0,1-1.5-10.7c.8-6.43,1.63-12.87,4.47-18.8,2.62-5.45.68-10.69-.47-16.3-6.93-1.14-8.57-9.22-15.57-10.57,1.48-2.75,3.29-3.31,4.82-4.19,11.41-6.55,22.29-13.82,31.75-23,1.17-1.14,2.62-2,3.18-3.69a94.68,94.68,0,0,1,2-2,.88.88,0,0,0,1-1,1,1,0,0,0,1-1,1.17,1.17,0,0,0,1-.91c0-.31.09-.34.26-.07l-.25.11a1.09,1.09,0,0,0-.88,1c-.63,0-1,.31-1,1-.69,0-1.07.25-1,1-.72,0-1,.3-1,1-.69,0-1.1.23-1,1-.95-.18-1.55.46-2.18,1a260,260,0,0,1-36,25.15,13.87,13.87,0,0,0-1.44,1.18c-1.16-2.47-4-2.35-5.77-3.82-1-1.88-.65-3.73-.61-5.54l-.08.06c10.17-5.44,20.36-10.86,30.51-16.35a9.56,9.56,0,0,0,3.51-2.65l.28-.34-.16.45c-1.29-.33-2.22.54-3.22,1.05-8.51,4.4-17,8.81-25.48,13.3-2.17,1.15-4.74,1.56-6.48,3.5l.06-.09c-2,.41-3.56-.26-3.26-2.4.31-2.3-.73-3.81-2-5.34-1.08-1.32-2.11-2.58-1.46-4.43a2.14,2.14,0,0,0-.7-2.67c-2.35-1.58-1.93-4-2-6.16-.85-1.17-2.32-1.58-2.73-2.95a12.39,12.39,0,0,0,4.31-1c16.78-6.12,33.81-11.4,51.44-14.68a40.08,40.08,0,0,0-5.91.33c-5.8.58-11.41,2.15-17,3.58-9.62,2.46-19.43,4.35-28.71,8.08-1.83.74-3.85,1.3-4,3.82-5.7-3-11.68-5.47-18.13-6a48.68,48.68,0,0,1-14.48-3.07c-6.9-2.75-13.73-5.68-20.56-8.59-.69-.3-1.62-.49-1.83-1.47l-.13.11c3.54-.75,3.54-.75,4-5.33-.42-.61-2.15.75-1.72-1.15.21-.19.45-.57.66-.56,2.49.18,5,.3,7.44.66,8.25,1.22,16.6,1.26,24.89,2,4,.34,7.89,1,11.39,3.18a5.09,5.09,0,0,0,3.68.92c1.37-2,1.67-3.89-.79-5.38.08-1.61,1.53-1.94,2.05-3-.05-1.41-2-1.75-1.82-3.74.09-.29.71-.54,1.39-.55,12.65-.17,25.31-.58,38,.2,5.63.34,11.28.64,16.9,1.49,6.36,1,12.32,2.63,17.37,6.7,1.64-.71,1.69-2,1.32-3.35-.52-1.89-.13-4.8-2-5.4-3.76-1.25-3.68-5.36-6.91-6.9.85-.67,1.19-1.16,1.6-1.24a5.6,5.6,0,0,0,5-5.41c.3-3.27-1.26-5.76-3.85-7.63s-5.53-2.08-8.68-2.6a17.1,17.1,0,0,1,.56-5.57c4.29-.77,8.64-4,12.68,1-.86-1.23-1.79-2.42-2.56-3.7s-1.75-2.91-.87-4.67.13-3.19-.33-4.8c-2.51-8.91,2.9-17,12.09-18.08a68.62,68.62,0,0,1,7.46-.27c4.19,0,6.18,3.47,7.91,6.14s3.66,5,6.79,6.14a18.82,18.82,0,0,0,0,10.32,3.6,3.6,0,0,1-2.3,4.82c-2.86,1.19-3.55,3.3-2.76,6.07.86,3-.31,6.3,1.86,10.29.79-4.78,4.85-5.46,6.76-8.69a6.52,6.52,0,0,0,5.64.08c2.61.61,2,3.26,3.74,4.34,5.43-2.8,11-5.47,15.92-9.14,9.15-6.79,19.55-11.2,29.89-15.72.46-.2.93-.59,1.37-.55,7.88.61,15.88,0,23.6,2.23.24.07.38.47.57.72a1.31,1.31,0,0,1-.07.46c-.66,1.06-1.45.15-2.27.17l-1,2.3c-1.92-.42-3.3-2.25-5.46-2-2,.22-3.93.34-5.65,1.5.75,1.79,4,1.53,3.41,4.62-2.7.46-4.67-2.22-7.33-1.93s-4.76-1.22-7.16-2.12c-2.7,1.56-4.54,4-6.67,6s-4,4.54-7,5.44c-5.31,1.6-9.1,5.31-13.05,8.89-5.82,5.27-12,10-19.75,12.25.13,3.11-1,5.29-4.52,6.24,1.72,3.34.92,6.3-1.42,9.09-2.7,3.24-3.73,7.41-5.75,11a72.14,72.14,0,0,1-7.34,11.27c10,4.46,16.82,12.47,24.1,20.75a123,123,0,0,1,8-29.68c.62-1.52.9-3.21,2.25-4.35-.1,1.15-.6,2.41.78,3.2a17.3,17.3,0,0,0-2.53,3,5.25,5.25,0,0,0,2.42,7.16c2.76,1.43,5.4.68,6.82-1.93a5.49,5.49,0,0,0-2.05-7.34,6.7,6.7,0,0,0-4.78-.81c1.23-1.43,1.31-2.56-.79-3.16.44-2.28,1.07-4.46,2.86-6.11l.25.22a33,33,0,0,0-.13,4.44c.22,2.31,2,3.3,3.94,4.05a3.7,3.7,0,0,0,4.1-1.05c3.28-3.14,2.41-7.71-1.79-9.6l-2.25-1,.08.15a1.58,1.58,0,0,0-.35-1.82l-1.77.73.09,0a52.28,52.28,0,0,1,12-18.08c-.15.62-.28,1.24-.45,1.86-.94,3.48.24,6.16,3.16,7.16a5.39,5.39,0,0,0,6.65-2.74c1.39-2.69.31-5.6-2.92-7.28-1-.53-2.16-.75-2.51-2,2.26,1.25,1.79-.17,1.69-1.55-1.09.3-1.72.67-1.61,1.67-1.14,1.35-2.27,2.7-4.14,3.05a37.62,37.62,0,0,1,13-13c1.07.69,2.29,2.27,3-.71-1.29-.19-2,1.23-3.13.82A31.07,31.07,0,0,1,916,454.05l-.08-.11c0,.68,0,1.36,0,2a10.47,10.47,0,0,0-4.06,1.77,5.41,5.41,0,0,0-1.34,7.07,5.56,5.56,0,0,0,7,1.83,5.16,5.16,0,0,0,2.38-6.73c-.78-2-2.59-2.89-4.14-4.06,1.28.4,2.47.61,3.06-1.08.35-1,.54-1.85-1-1.84l.12.13a24.28,24.28,0,0,1,10-5.19l-.06,2.17a7.83,7.83,0,0,0-4.26,1,5.35,5.35,0,0,0,3.8,9.9,5.17,5.17,0,0,0,4.21-5.76,23.77,23.77,0,0,0-.86-3.29c2.27-.65,2.07,1.6,2.94,2.55,2.18,2.38,4.91,2.81,7.46,1.06s3.07-4.49,1.35-7.3c-.5-.81-1.16-1.52-1.74-2.28,2,1,3.71.76,5.1-1.06-.18.8-.43,1.58-.55,2.39-.45,3,.9,5.53,3.39,6.44a5.67,5.67,0,0,0,6.24-1.85c1.5-1.95,1.31-4.43-.53-6.8-.6-.77-1.22-1.53-1.83-2.29a4.92,4.92,0,0,1,3.1,2c1.09,1.57,2.14.38,3.22.15a20.73,20.73,0,0,0-.5,3.88,5.27,5.27,0,0,0,10.1,1.55c1-2.29.24-4.43-1.76-6.16-3-2.61-5.43-.53-8,.87-.67-1.31,1.26-1.76.94-3.22-2.33.39-4.85-.87-7,1.05-2,.4-4,.2-5.91,1.16-2-.93-4.33-.59-7,1-2.8.75-5.88,1.06-7.16,4.32-.19.49-.28.59-.76-.21-.25-.37,1.35-1.36.06-2.16-1.46,0-2.63,1.33-4.18,1,5.89-3.57,12.42-5,19.14-6a112.24,112.24,0,0,1,23.31-.94c1.31.07,2.69-.1,3.74,1L973,443.1a12.24,12.24,0,0,0-6.46-.77c2.09,1.19,2.53,2.78,4.06,3.23.87-.83,2-1.33,2.33-2.54l1.11-1.07c8.62.15,16.53,3,24.18,6.63,3.79,1.8,8,3.05,10.83,6.46-2.11-.14-4.07-.39-5.63-2.23-1-1.23-2.84-1.44-4.44-1.73a4.28,4.28,0,0,0-4-2.13c-.12-.5-.3-1.05-.79-.31-.16.23.26.52.65.45-.38,1.78.06,3,2.16,2.86-.28.41-.57.8-.81,1.21-2,3.39-1.82,6,.56,7.86,2.61,2,5.48,1.57,8-1.58,1-1.18,1.79-1.77,3.23-1.49a23.92,23.92,0,0,0-2.24,3.2c-1.23,2.54-.26,5.15,2.32,6.72a5.44,5.44,0,0,0,7.3-1.86c1.44-2.27,1-4.69-1.29-6.49A40.3,40.3,0,0,0,1010,457c-.17-.78-1.28-1.1-1-2.09,4.52,1.6,8,4.6,11.13,8.12-1,.58-1.86-1.06-2.91-.4-.5,1.39-.45,2.54.87,3.35-.34.36-.69.7-1,1.07-2.36,2.86-2.6,5.36-.73,7.46,2.06,2.32,5.29,2.89,7.74.53,1.77-1.7,3.79-.16,5.3-1.27,0-2.39-2.72-1.61-3.18-2.8-1.18-3.05-3.48-4.66-6.23-5.93,0-.71,0-1.43,0-2.14,7.19,5,13.26,11.11,17.13,19.14-1.95.3-1.95.3-.89,1.95,1.07-.4.41-1.42.76-2.08,2.13,1,2.79,3.19,3.84,5A131.19,131.19,0,0,1,1057.35,530a24.66,24.66,0,0,0,.78,2.61c7.58-4.2,13.73-10.76,23.14-11.68-2.81-6.33-4.55-13-8.36-18.64-2.81-4.19-5.43-8.16-1.92-13.83-4.29.32-6.54-1.26-7.09-4.95-.21-1.44-1.43-2.09-2.62-2.79-7.67-4.46-14.89-9.49-20.21-16.79-.29-.4-.62-.93-1-1.06-6-1.88-9.7-6.86-14.43-10.47-5.15-3.93-9.64-4.19-15.47-.9a13.84,13.84,0,0,1-1.34.58c-2.5-2.17,1.1-3.34.7-5.33-3.3-1.3-6.77-.49-10.49-.33-.69-1.17,0-3-1.81-4,12.87-1,24.32.46,35.57,7.29,10.49,6.38,20.19,14.05,31.59,19.53.91-1.72.88-4.33,4-4.55,9.83-.67,10-.7,15.1,7.67.6-4,1.62-7.24,1.53-10.55-1.44-2.95-5.1-2.85-6.69-5.7a44.78,44.78,0,0,0,1.92-12.69c3.17-.6,4.69-2.84,6.25-5.61a12.27,12.27,0,0,1,9.54-6.48c2.65-.2,4.21-1.48,6-2.94,2.53-2,4.53-4.88,8-5.74,2.81,1.91,3.27,4.68,3.32,7.53a26,26,0,0,1-2.78,11.55c-.84,1.79-2.3,3.28-2.56,5.34-.65-.06-.88.41-1.12.88-.19.31-.8.48-.31,1,.59-.28.38-.7.21-1.12.82.41,1.16.05,1.22-.76,2.9-1.29,3.09-4.49,4.87-7,2.51,2.36,2.25,5.38,2.36,8.48,2.39.74,5,0,7.29,1s3.76,2.71,5.65,4,4.54.68,6.81.43c4-.44,7.63-2.32,11.74-2.09,1.86.1,2.51-2,4-2.81,2,1.29,2.23,2.72.43,4.36-1.62,1.48-3.37,2.82-5.72,2.63-4.87-.38-9.27,1.83-14.71,2.19,3.72,2.63,6.86,4.12,10.77,2.52,1.72-.7,3.52-1,5.1.54-.23,1.5-.72,2.64-2.36,2.74-6,.38-12.12.69-16.78-4.17-2.27-2.37-5.4-1.06-8.42-3,1.78,4,2.85,7.43,6.69,8.37.24,2.49-1.16,2.91-2.77,2.89-2.56,0-5,.3-7,2l.09-.12c-2,.74-3.71,1.8-4.13,4.13ZM854.14,529.86c-.25.83.09,1.16.92,1.09-.13.78.21,1.1,1,1,.38,2.25,2.16,3.21,3.84,4.27-1.22-1.48-1.9-3.47-3.9-4.2a.89.89,0,0,0-1-1c0-.65-.36-.95-.94-1.09l-.91-1-1.07-1.08c-1.07-.59-1.65-2.12-3.25-1.66.3-.82-.06-1.15-.85-1.17-.64-1.88-2.17-2.62-3.94-3.06a3.71,3.71,0,0,0-4.06-1.87l-.27-.31.37.21a4.82,4.82,0,0,0,3.91,2A5,5,0,0,0,848,525c-.11.7.39.92.89,1.14a3.92,3.92,0,0,0,3.22,1.68,1,1,0,0,0,1.09,1.07C853,529.63,853.29,530,854.14,529.86Zm10,10.93.94,1.23,1,2a21.76,21.76,0,0,0-.5,3.37,5.39,5.39,0,0,0,6.16,5.51,5.25,5.25,0,0,0,4.51-6,5.57,5.57,0,0,0-6.45-4.65c-1,.16-1.73,1-2.81.77-.08-.72.18-1.54-.63-2.13L865,542.12l-1-1.21-.21-.18ZM805,518.1l-.22.11.21-.16.19-.21Zm66-1.18c.54.12.92,0,.86-.64,0-.18-.45-.51-.51-.48a.86.86,0,0,0-.26,1.22l-.22.12Zm24,93,.35.46c0-.09,0-.22-.07-.26A1.08,1.08,0,0,0,895,610a2.38,2.38,0,0,0-1.86-2.66C892.85,609,893.25,610,895,609.94ZM928,638c-.32-.78-.65-.89-1,0a44.37,44.37,0,0,0-4.12-2.59,2.83,2.83,0,0,1-2-2.52c4,1.17,7.44,3.5,11.22,5.11a72.26,72.26,0,0,0,48.52,3.39c5.28-1.43,9.89-4.56,15.32-5.48,1.1,1.4,3.54,1,4.12,3.12-3.16-1-6.34-2.23-9.07.93l.12.1c-2.68-1.36-4.35.4-6.1,1.95a11.51,11.51,0,0,0-7.06,3.9c-.23-.91.9-1.68.25-2.73l-5.15,1.22c1.59,1.35,2.29,2.86,3.78,3.35l1.23-2a13.94,13.94,0,0,0,.13,3.43c.87,3.14,3.5,4.81,6.29,4.21a5.44,5.44,0,0,0,4.33-6.68,21,21,0,0,0-.92-2.81c1.74,0,2.45,1.32,3.45,2.44,2.29,2.59,4.59,3,7,1.63,2.65-1.53,3.33-3.78,2.19-7.25l-.6-1.82c2.06-.54,2.82,1.34,4.14,2.21a5.35,5.35,0,0,0,6.85-.62,5.06,5.06,0,0,0,.44-7.18A26.16,26.16,0,0,0,1009,631a2.1,2.1,0,0,0,2.67-1.81,4.39,4.39,0,0,0,1.58,3.16c2.41,2.68,5.31,2.87,7.81.55a5.13,5.13,0,0,0,.32-7.5c-2.39-2.48-5.2-2.59-7.81-.16-1.06,1-1.69,2.59-3.6,1.86,3.49-4.55,8.52-7.73,11.84-13-3.92,0-7.44-.32-10.87.08a116.64,116.64,0,0,0-12.21,2.43c-5.84,1.32-11.6,3-17.48,4.08-5.23,1-6.77-.29-8.45-5.85,1-1.21,2.49-1.45,3.88-1.93,3.13-1.08,6.21-2.32,9.37-3.33,5.6-1.78,7.55-6.12,8-11.4.24-2.52,0-5.07,0-7.71-1.88.36-2.12,1.47-2.72,2.21-7.59,9.35-15.86,18.06-26.26,24.28-16.77,10-33.69,10-50.45-.29-8.23-5.06-14.46-12-20-19.85C884,582,882.15,565.4,884.73,548.19c2-13.44,8.58-25.11,17.52-35.3,2.44-2.79,5-5.78,8.8-7,.15,1-.68,1.43-1.26,2-10.57,9.81-16.39,21.89-18,36.22a97.83,97.83,0,0,0-.49,17.93c1.51,22.7,11.12,40.46,32.15,50.86a40.33,40.33,0,0,0,29.6,2.86,57.13,57.13,0,0,0,27.72-17.81c6.59-7.5,12.78-15.32,19-23.15,2.31-2.94,4.93-5.46,8.43-6.8a13.2,13.2,0,0,1,8.34-.42,10,10,0,0,1,7.33,6.48c5-2.15,4.54-6,3.78-10.14,4.31,3.72,4.36,3.86,9.48,1.84,1.63-.64,3.16.06,4.64-.18.72-9.09-2-12.09-11.7-12.76,1.57-1.51,4.07-2,4.08-4.68-9.9-1-18.09,2.29-25.35,8.55-1.82,1.57-3,4.07-5.78,4.39,1-3.18,4.6-4.23,6-7.08.64,0,1.07-.28,1-1,1.82,0,3-1.35,4.38-2.16a37.71,37.71,0,0,1,16.59-4.81c5.42-.36,6.08.24,7.75,5.42a4.81,4.81,0,0,0,.77,1.77,14.52,14.52,0,0,1,4.13,9.77c2.34-5.26,1.86-10.86,1.76-16.19a104.72,104.72,0,0,0-12.87-48.68c-6-10.91-13.49-20.62-23.75-27.86-16.08-11.35-33.85-16.36-53.62-14.28-27.18,2.87-47.78,15.78-61.92,39.23-6.55,10.84-10.36,22.6-13,34.86a95.08,95.08,0,0,0,1.31,46.23c1.87,6.73,4.75,13.1,6.6,19.82-2.6-.68-2.78-3.31-4.06-5.05,2.12-1.69.28-2.57-.69-3.66-1.77,1.75.44,2.55.83,3.77-3.31-1.26-6.3-1.38-8.45,2.14-.38.63-1.15.14-1.7-.2-.1-.11-.21-.21-.3-.32s-.16-.23-.25-.34l.65.57c.37,1.07.71,2.16,1.11,3.21,2.26,5.87,5.72,6.57,10.24,2.09.32-.32.55-.77,1.16-.58.68.83,1,2.09,2.33,2.29l.57.49c0-.39-.25-.5-.67-.38.72-1.62-1.12-2.67-.91-4.17,2.62,1.54,2.9,4.63,4.5,6.86,3.35,4.65,6.44,9.48,9.63,14.24-.88.19-2.28-.14-2.07,1.35.25,1.73,1.63,1.82,3,1.53-1,1.34-2.82.67-4.08,1.52a5.28,5.28,0,0,0-1.57,7.39,5.43,5.43,0,0,0,7.8,1.64,5,5,0,0,0,1-7.4,29.29,29.29,0,0,0-3.25-3v-2.12A25.62,25.62,0,0,1,910,625c-1.41.26-2.54.73-1.75,2.56a2,2,0,0,0,2.88-.06c-.45-.94-.86-1.78-1.26-2.63,4,2.3,8.06,4.61,11.16,8.18-2.68-.39-4.78-1.85-6.92-3.44a5,5,0,0,0-7,1.26,5.2,5.2,0,0,0,.65,7.18c2.62,2.42,5.64,2.14,8.17-.88.91-1.08,1.27-2.93,3.29-1.77a21.12,21.12,0,0,0-2.18,2.68,5.37,5.37,0,0,0,2.23,7.61,5.54,5.54,0,0,0,7.47-2.92,7.81,7.81,0,0,0,.15-4.87l1.17,0c-.73,1.92-.14,3,2,3a17.09,17.09,0,0,0-1.45,2c-1.73,3.17-.88,6.47,2,8s5.85.37,7.42-3.18A23.73,23.73,0,0,0,939,645l2.11,0a25.68,25.68,0,0,0-1.28,3.73,5,5,0,0,0,3.39,5.88,5.67,5.67,0,0,0,6.55-2.29,5.32,5.32,0,0,0-1.1-6.79C947,643.91,945,644,943,644.07c-1.44-1.38-2.87-2.82-5-1a12.88,12.88,0,0,0-6-3A4.2,4.2,0,0,0,928,638ZM789.91,634c-.65.43-1.57.59-1.67,1.7,2.33,1.3,4.62.23,7.32.21-1.85-2-4.32-.33-5.75-2,1.43.08,2.89.55,4.57-.33C792.62,633.21,791.19,632.9,789.91,634Zm30-174.87-.1-.28.19.2c.82,2.26,3.59,2.52,4.39,4.76,3.59-3.22,3.59-3.22,2.76-7.49C825.17,458.56,822.58,458.89,819.94,459.08Zm50.83,124.15c.57-1.9.49-3.56-1.87-5.13a7.12,7.12,0,0,0,2,5,23.46,23.46,0,0,0,1.49,3.65c1.85,3,4.92,3.6,7.6,1.66a5.33,5.33,0,0,0,.65-7.89,5.19,5.19,0,0,0-7.84-.1A22.83,22.83,0,0,0,870.77,583.23ZM980.93,444.94c-1.27-.37-2.52-.79-3.8-1.1-2.83-.69-4.39,1.17-5.62,3.17s-.22,4.57,1.83,6.14a5.4,5.4,0,0,0,8.52-5.61c-.27-.93-1.14-1.65-1.05-2.74,1.57.33,1.38,2.17,2.49,2.89l2.76-.73a22,22,0,0,0-1.82,2.29c-1.81,3-1.09,5.89,1.81,7.6a5.43,5.43,0,0,0,7.53-2.27,5.34,5.34,0,0,0-2.83-7.35,34.19,34.19,0,0,0-3.76-1.18C985.06,445.15,983.39,442.88,980.93,444.94ZM875,555c-2.77-.32-5.5-.39-8,1.1,0-1,.28-2-1.79-3.11.82,1.63.09,3,1.92,3a21.82,21.82,0,0,0-.73,2.34c-.55,2.78.44,5.11,2.62,6.31a6,6,0,0,0,6.41-.89c1.82-1.83,2-4,.51-6.73-.39-.7-1-1.27-1-2.15.71.06,1.15,1.16,2,.55a4.53,4.53,0,0,0-.41-3.93Zm173.16-46.79a17.23,17.23,0,0,0-3.92-.1c-3.1.63-4.35,3.13-3.39,6.36,1.11,3.75,3.32,5,6.53,3.82s4.54-4.23,3-7.11a21,21,0,0,0-2.39-3.08c1.1-.75,1.52-1.58.33-2.62C1047.52,506.31,1048.2,507.27,1048.13,508.17Zm-5.07-12.07c-1.65.09-3.3.11-4.73,1.16a5.25,5.25,0,0,0-1.18,7.48,4.94,4.94,0,0,0,6.94,1.61c2.66-1.5,3.38-4.46,1.91-7.25-.73-1.4-2.17-2-3.07-3.12.74-.25,1.23-.57.29-1.38ZM1054,568c0,1.75-.44,3.52.18,5.25a17.13,17.13,0,0,0-2.83-2.7,5.35,5.35,0,0,0-7.54,2.18c-1.54,3.2-.6,6,2.47,7.36a5.48,5.48,0,0,0,7.3-3.07,16.45,16.45,0,0,0,.47-3.89,7.25,7.25,0,0,0,1.67-3.86c.26-1.54-.94-1.23-1.86-1.14a18.91,18.91,0,0,0,1.94-2.8c1.26-2.65.77-4.94-1.35-6.65-1.81-1.46-3.78-1.94-5.94-.67a5.77,5.77,0,0,0-2.51,6.44c.58,2.73,2.47,3.71,5,3.71C1052.05,568.13,1053,568,1054,568Zm-1.82-47.81a10.26,10.26,0,0,0-3.45-.33c-2.41.23-4.1,1.26-4.66,3.74a5.91,5.91,0,0,0,2.78,6.39c2.4,1.14,4.55.51,6.43-1.18s1.8-3.81.68-5.9a29.44,29.44,0,0,0-1.93-2.83c2.62-1.12.61-2.37.19-3.65C1050.15,517.73,1051.51,518.94,1052.2,520.16ZM967,646.07c-2-1.55-4-.92-6,0l-6.87-.22c-1.2-1.13-2.49-1-3.9-.39.32.95.33,2,1.62,2.45l2.37-2.21c-.07,1.43-1.35,2.25-1.77,3.51a5.49,5.49,0,0,0,4.1,7.25,5.15,5.15,0,0,0,6.43-4.51,16.4,16.4,0,0,0,0-3h2.13a16.16,16.16,0,0,0,.15,3.42,4.76,4.76,0,0,0,4.58,3.8c2.49.16,4.57-.56,5.65-3,1-2.23.34-4.08-1.23-5.85C972.08,644.94,969.61,645.26,967,646.07Zm-98.12-116c.18-.87.62-1.8-.62-2.39-.66,1.13-1.19,2.11.75,2.27a17.61,17.61,0,0,0-1.89,3.37,5.42,5.42,0,0,0,4.13,7.15,5.59,5.59,0,0,0,6.38-4.78c.35-3-1.9-5.58-5.31-5.84A24.83,24.83,0,0,0,868.88,530.11Zm8.21,38c-2.63-1.56-5.3-1.28-8-.19-.93-.58-.7-2.18-2.43-2.48.2,1.19,0,2.29.82,3.23l1.71-.88a21.46,21.46,0,0,0-1.1,2.74c-.71,2.85.11,4.93,2.41,6.41s4.31,1.08,6.67-1c.73-.65,1.34-1.43,2-2.14.06,1.63-1,3.65,1.36,4.52-.18-1.57-.12-3.24-1.48-4.41-.11-2.18-1.18-4-2.13-5.91,1.37-1.21,1.37-1.21.41-3.08A3.51,3.51,0,0,0,877.09,568.1Zm143,50.89a6.09,6.09,0,0,0-2.9,2.67c1.25.65,2.37,2.13,3.81.3a14.63,14.63,0,0,0,2.43,2.42,5.52,5.52,0,0,0,7.43-1.89,5.37,5.37,0,0,0-1.19-7.15c-2.36-1.91-4.78-1.77-7.09.56A34,34,0,0,0,1020.08,619Zm35-85.84a25.39,25.39,0,0,0-2.8-.91,5.08,5.08,0,0,0-5.8,2.78,6,6,0,0,0,1.29,6.84c1.64,1.51,4.78,1.47,6.88-.06s2.54-3.71,1.6-6.12c-.36-.91-.86-1.77-1.3-2.65,1.52-.93,1-2,.39-3.3C1054.45,530.89,1055.08,532,1055.11,533.15Zm-23,67.74c.17.6-.42,1.48.85,1.89.17-1-.07-1.55-1-1.77,1.66-5.58,5-10.44,6.91-15.92a102,102,0,0,0,4.82-19.16,16.31,16.31,0,0,0-1.64,3.46,5.38,5.38,0,0,1-2.45,3.22c-2.49-2.22-5.21.12-7.72-.49-3.23,5.18-5.45,7.71-7.58,8.74-3.53,1.72-5.58.61-6.12-3.3s-.87-4.2-5.51-5.15c-.63,8.65-.5,17.26-.42,25.87,0,2.6,2.09,4.25,5,4.61,2.27.29,4.62-.39,6.68.35,2.23,2.72.5,5.25.19,7.78l-.31.27s.1-.17.22-.36l2.09-1c.53,1.08-1.3,1.93-.44,3,1.36.63,2.18-.09,3-.86a12.86,12.86,0,0,0,1.77,1.77c2.52,1.75,5.2,1.58,7.17-.34a5.51,5.51,0,0,0,.44-7.22q-2.61-3.47-7-1.31c-.71.36-1.4.76-2.11,1.14A7.15,7.15,0,0,1,1032.07,600.89Zm-21.43-27.69c-7.78,3.48-9.74,6.33-9.88,13.95a68.49,68.49,0,0,0-.12,8.47c.56,5.44-2.25,8.8-6.38,11.49s-8.57,4.31-13.08,6c-2.07.76-4.42,1-5.9,3.15a159.29,159.29,0,0,0,23-6c8-2.59,16.32-1.73,24.32-2.3.25-1.43.38-2.26-.32-2.84-2.35-.38-4.67-.6-6.91-1.16-3.49-.88-5.16-3.18-5.12-6.88.06-4.32.27-8.64.35-13C1010.68,580.53,1010.64,576.94,1010.64,573.2Zm159.14-43.15c-3.75,1.49-3.76,1.49-3.79,4,0,.67.1,1.33.12,2,.28,7.77-1.72,10.84-8.91,13.69-.93.37-1.87.72-2.82,1a10.25,10.25,0,0,0-6.87,6c-1.25,3-3.47,5.21-5.92,7.28-4.53,3.84-9.94,5.95-15.3,8.24-9.49,4.06-19.09,7.67-29.38,9.17a31.85,31.85,0,0,1-13.84-.93,20.74,20.74,0,0,0-6.92-.55c-1.92.08-3.35.79-3.74,3.35,2.07-2.2,4-1.24,6.1-.53a34.19,34.19,0,0,0,13.8,1.68c14.73-1.22,28.89-4.62,42-11.58,7.28-3.86,14-8.45,17.88-16.11a6.78,6.78,0,0,1,4.53-3.57,28.78,28.78,0,0,0,8.45-4.19,11,11,0,0,0,5.1-10.22C1170.14,536.05,1170,533.25,1169.78,530.05Zm-96.67,47.79c4.14-.05,8.1,0,12,1.14,4.4,1.28,8.84,1,13.33.22,13.11-2.22,24.94-8,36.84-13.4a21.25,21.25,0,0,0,11.21-11.53,9.09,9.09,0,0,1,6.25-5.31c1.43-.43,2.91-.71,4.31-1.23,5.15-1.91,7.26-5.24,6.93-10.74-.14-2.15-.67-4.27-.19-6.46.35-1.6-.79-1.95-2.1-2.06-1.43,2-1.41,4.36-1.62,6.66-.57,6.34-2.57,9-8.7,10.48a11,11,0,0,0-6.46,4.29c-1.09,1.47-2.16,3-3.13,4.5a27,27,0,0,1-8.83,8.64c-11.06,6.85-23.41,10.1-35.9,13a21.84,21.84,0,0,1-11.29-.59,34,34,0,0,0-8.37-1.2C1075.11,574.18,1073.5,575,1073.11,577.84Zm98.31-48.48a3.55,3.55,0,0,0,3.25.38c1.43-3.39,1-6.75-.23-10.11a29.83,29.83,0,0,1-1.68-13.21c.08-.84,1-1.93-.43-2.55-2.61,1.81-2.55,1.84-3.29,3.9-1.51,4.21-.39,8.22,1,12.15A21.46,21.46,0,0,1,1171.42,529.36ZM1044.85,582a5.7,5.7,0,0,0-5.35,6c.06,2.49,2.61,4.89,5.26,5a5.47,5.47,0,0,0,5.54-5.73A5.25,5.25,0,0,0,1044.85,582ZM886.56,601a5.53,5.53,0,0,0-5.37,5.39,5.54,5.54,0,0,0,11.06.45C892.39,604.16,889.42,601.11,886.56,601Zm19-126.06a5.59,5.59,0,0,0,5.09-5.7c-.24-2.85-3.09-5.54-5.63-5.31s-5.24,3.38-5.1,5.87A5.43,5.43,0,0,0,905.56,475Zm-6.31,142.11a5.54,5.54,0,0,0-5.27-5.52,5.29,5.29,0,0,0-5.74,4.92,5.76,5.76,0,0,0,5.24,5.64A5.6,5.6,0,0,0,899.25,617.09ZM1028.6,474.74a5.53,5.53,0,1,0,.47,11.05c2.61-.18,5.14-2.71,5.15-5.17C1034.23,477.94,1031.09,474.66,1028.6,474.74Zm18.41,75.4a5.5,5.5,0,0,0,5.32,5.48,5.77,5.77,0,0,0,5.37-5.57,5.37,5.37,0,0,0-5.47-5.27C1049,544.79,1047,546.86,1047,550.14Zm-6.22-58.6c.35-3.1-2-6.2-4.87-6.45-2.41-.21-5.28,2.15-5.66,4.66a6,6,0,0,0,4.53,6.23A5,5,0,0,0,1040.79,491.54Zm126.86,11.91c-3.94.76-4,.73-4.56,2.1a11.86,11.86,0,0,0-.47,7.8c1.33,4.89,2.94,9.74,2.21,14.85,1.6.45,2.81,1,4.51-.05C1168.72,520.18,1163.18,512.5,1167.65,503.45ZM874.27,528.22a5.18,5.18,0,0,0,5.66-4.94,5.47,5.47,0,0,0-5.13-5.65,5.3,5.3,0,1,0-.53,10.59Zm9.6-38.69a5.43,5.43,0,0,0,5.68,5.1c2.68-.19,5.33-3.23,5.09-5.86a5.81,5.81,0,0,0-5.83-5A5.55,5.55,0,0,0,883.87,489.53ZM1045.14,598.7a5.47,5.47,0,0,0-5.32-5.43c-2.71,0-5.68,3.25-5.51,6a5.68,5.68,0,0,0,5.81,5A5.14,5.14,0,0,0,1045.14,598.7Zm69-140.6c-2.63,6-7.12,7.83-13.12,5.34-1.1,3.51-1.1,3.51.32,6.83,4.57-4.58,10.65-5.94,16.64-7.43A7.35,7.35,0,0,0,1114.15,458.1Zm-60.26,127c5.12,2.31,14.09,3.38,18.66,2.22-.08-1.27-.46-2.29-2-2.27-5.49,0-10.8-1.2-16.09-2.49C1054,583.53,1053.46,584.2,1053.89,585.09Zm17-6a81.18,81.18,0,0,1-15.13-2c-1.24,2.26-.23,3.24,1.36,3.74a36.29,36.29,0,0,0,13.34,1.7,10.44,10.44,0,0,0,.42-1.42C1071,580.69,1070.93,580.19,1070.93,579.14Zm107.33-75.46c-1.13-9.5-2.23-11.51-6-11,1.29,3.35,2.7,6.62,3,10Zm-9.09-.72c3.1-1.8,3.29-2.39,1.76-6.62-.68-1.89-1.17-4.46-4.51-2.94C1168.21,496.21,1168.51,499.37,1169.17,503Zm-9.34-16.19c1.85,5.26,1.85,5.26,4.66,4.86C1163.29,489.75,1163.52,487,1159.83,486.77Zm8.64,5.12c0-3.56,0-3.56-3.32-4.84C1166.26,489,1166.36,491,1168.47,491.89ZM1057.36,545.2c.28-1.27.66-2.22-.62-3.06C1056.1,543.2,1055.74,544.09,1057.36,545.2ZM798.22,489.61v-.19h-2.78v.19Zm320.71-37.16c.93,1,1.81,1.76,3.34,1.12C1121.4,452.47,1120.52,451.67,1118.93,452.45Zm-62.25,103c-.87,1.91-.87,1.91.09,3.17C1057.07,557.55,1057.54,556.5,1056.68,555.45ZM888.57,481c-.55.67-1,1.17-.51,1.8a.82.82,0,0,0,.81-.06C889.36,482.22,889.48,481.66,888.57,481ZM802,490.55c.73.22,1.51,1,2.08-.22C803.31,490.12,802.57,489.76,802,490.55Zm236.51,99.78c-1.1.52-1.62,1.22-1,2.53C1038.53,592.12,1039.2,591.47,1038.46,590.33ZM876.65,543.86a4.87,4.87,0,0,0,.3-.71c0-.08-.15-.2-.24-.31-.16.16-.45.31-.45.47S876.5,543.68,876.65,543.86Z"
      transform="translate(-662.32 -248.35)" />
    <path
      d="M1136.93,601.07c3.22-.32,3.08,2,2.83,3.95-1.26,9.91-2.18,19.9-5,29.51a68.2,68.2,0,0,0-2.24,13.72,18.7,18.7,0,0,1,2.21,3.21c1,2.31.1,5.48-2.22,6.45-2.88,1.2-3.53,3.08-3.39,5.87.43,8.14-2.89,7.85-7.94,9-2.33.53-4.27,0-7.25-1.27.22-2.91,3.27-3.53,4.72-5.85-.27-5.74.86-11.62,1.94-17.51,2.27-12.46,1.12-24.9-.3-37.32-.24-2.11-.58-4.2-.9-6.49,2.43-.53,4.09.85,5.94,1.24,2.85.59,5.51.61,7.74-1.64l-.17.14a2.67,2.67,0,0,0,3.15-2.13l-.14.14c.73,0,1-.47,1.14-1.14Z"
      transform="translate(-662.32 -248.35)" />
    <path
      d="M1116,470.07a25.13,25.13,0,0,1,8.83-1.12,11.5,11.5,0,0,0,6.31-1.18c5.09-2.73,10.49-2.87,16-2.25a58.08,58.08,0,0,0,21.72-1.72c6.19-1.65,12.38-.46,19.32-.2-1.47,1.82-4,2.47-1.36,5-4.58-1.05-8.4-2.79-12.07,0,.77,1.57,4,.73,4,3.48-3.9.53-9.8.08-12.75-1.19a4.65,4.65,0,0,0-3.81-.17,110.7,110.7,0,0,1-30.44,7.16,5.51,5.51,0,0,0-1.39.53c1.9,3.8,5.18,5.53,9.58,5.07a13.36,13.36,0,0,1,2.93-.29c1.47.17,1.57.79.66,3.48-1.64-.65-3-2-5.24-.72s-4.78-.18-7-1.32a20.9,20.9,0,0,1-5.73-4.56l-9.12,2.72c-4.1-1.78-4.3-5.25-4.27-8.82l-.12.15c1.76-1,2.83-2.68,4.13-4.13Z"
      transform="translate(-662.32 -248.35)" />
    <path
      d="M812.57,476.11c-4.69-.34-8.56-2.3-12.46-4.13a22.38,22.38,0,0,0-8.6-2.09c-7.38-.37-14.31-2.79-21.1-5.58-4.18-1.72-8.12-2.88-12.91-1.24-3.32,1.13-7.34.22-11.63.22,2.06-3.64,5.34-2.31,7.48-3.66-4.25-2.42-8.53-1.74-13,.1,0-1.73-1.09-2.7-1.79-4,7.7-3.86,15.26-2.15,22.53-.2,6.21,1.66,12.2,2.82,18.64,1.65,5.15-.93,10.21-.42,14.86,2.6,3.67,2.39,8,3.28,12.23,4a12.34,12.34,0,0,1,4.63,1.69C815.63,468.15,816.07,471.67,812.57,476.11Z"
      transform="translate(-662.32 -248.35)" />
    <path
      d="M991,293.77c1.57-2.45,3.61-.82,4.29-1.93a5.54,5.54,0,0,0,1.61-3c1.81-9.12,3.53-18.26,5.47-27.35.68-3.16-1-4.58-3.65-5.83,1.29-1.56,2.67-.79,3.77-.59,6.69,1.23,13.37,2.51,20,3.9,12.76,2.68,17,10.42,12.73,22.75-4,11.53-16.12,17.71-25.85,15.59C1003.46,296,997.45,295,991,293.77Zm17.58-33.16c-2,10.27-3.91,20.33-5.78,30,9.85,9.32,22.31,5.33,26.05-7.13a28.54,28.54,0,0,0,1.25-7.84C1030.32,263.29,1021,256.54,1008.61,260.61Z"
      transform="translate(-662.32 -248.35)" />
    <path
      d="M1236.21,440.84c-2.85,1.54-5.35,3.57-8.58,3.49-.58-1.18-.26-1.77.27-2.2,4.21-3.44,4.69-7.82,3.06-12.63s-4.87-8.29-10.08-9.36c-7.42-1.53-16.79,2.55-20.82,9-4.2,6.66-3,14.67,3.3,20.25,1.91,1.71,4.12,3.09,6.17,4.61-1.12,1.57-2,.56-2.75.17a34,34,0,0,1-10.84-7.82,17.19,17.19,0,0,1,.64-23.52c10.63-10.84,29.05-8.29,36.1,5.12C1234.76,431.86,1236.45,436,1236.21,440.84Z"
      transform="translate(-662.32 -248.35)" />
    <path
      d="M913.18,296.59c-4.68,2.35-9.19,2.73-13.61,3.48-.71-1.76.62-1.81,1.35-2.26a3.49,3.49,0,0,0,1.73-3.83c-1.1-5.87-2.27-11.73-3.46-17.58a2.75,2.75,0,0,0-.65-1c-1.47-1.2-2.64.69-4.31-.22a20.93,20.93,0,0,1,8.24-5.62c1.76,2.59,1.16,5.64,2.57,8.76,1.31-2.09,2.32-3.86,3.49-5.51a20.49,20.49,0,0,1,3.23-3.77c4.65-3.95,8.88-2.59,10.26,3.38,1.13,4.85,2.08,9.75,2.86,14.66.55,3.45,1.56,6.18,5.92,6.3-3.21,2.23-6.72,2.12-10.72,2.79,1.4-3.67,0-6.75-.44-9.91-.62-3.93-1.37-7.85-2.32-11.72-.91-3.71-3.27-4.4-6.16-2a9.94,9.94,0,0,0-2.6,3.61,22.37,22.37,0,0,0-2,13.59C907.22,293.28,907.54,297.11,913.18,296.59Z"
      transform="translate(-662.32 -248.35)" />
    <path
      d="M789.78,359c2-5.56,2-5.58-1.5-9.89-3.33-4.09-6.29-8.52-10-11.82-2-.25-2.21,2-4.2,1.66.68-3.32,3-5.7,4.4-9,2.86,1.91,4.06,4.77,6.3,6.67,1.37-.82.46-2.09.59-3.11.32-2.47.22-5,1.08-7.38,2.24-6.21,6.85-7.16,11.19-2.16,2.94,3.39,5.65,7,8.47,10.48a15.33,15.33,0,0,0,4.63,4.44c1.11.71,2.33-1.18,3.15-.95,1.08.37,1.24.69,1,1a37.52,37.52,0,0,1-7.53,6.19c-3.66-6.85-8.89-12.19-13.55-17.93-1.71-2.1-3.9-1.7-5.33.58a9.71,9.71,0,0,0-1.25,6.25,24.11,24.11,0,0,0,4,11.16c3.22,4.89,4.26,5.36,9.58,4.31C799.22,352.24,795.69,355.33,789.78,359Z"
      transform="translate(-662.32 -248.35)" />
    <path
      d="M1061,311.57c4.44.79,6.2-1.82,7.63-5.12,2.09-4.84,5.06-9.31,6.47-13.68-.3-2.42-2.22-2.15-3.12-3.72a27.72,27.72,0,0,1,9.86.43c-.32,3.25-2.64,5.47-3.4,8.43,1.69.43,2.81-.87,4.13-1.32a26.13,26.13,0,0,1,6.19-1.79c6.69-.55,9.46,3.1,6.75,9.14-1.77,3.95-3.66,7.84-5.71,11.65-1.85,3.43-3.6,6.71.13,10.33-3.7-.8-6.63-2.51-9.61-4.17,4.64-6,7.28-13,10.46-19.64,1.49-3.11-.86-5.55-4.44-4.88a17.29,17.29,0,0,0-7.92,4,24.5,24.5,0,0,0-5.56,7c-2.5,4.52-2.44,5.18.61,9.56A38.54,38.54,0,0,1,1061,311.57Z"
      transform="translate(-662.32 -248.35)" />
    <path
      d="M746.21,411.65c-1.66,3.05-3.31,6.11-5.37,9.92-1.12-2.92-3.06-3.77-4.93-4.76-4.39-2.35-8.67-4.92-13.12-7.16-3.89-2-6.11-.31-5.73,4.06.28,3.28,2,6,4,8.4a21.21,21.21,0,0,0,10.8,7.38c2.49.1,3.06-2.15,5.71-2.32a68.17,68.17,0,0,1-7.35,12.51c.87-4.86-2-6.75-5.53-8.45-4.47-2.17-8.61-5-13-6.75-2.1.15-1.83,2.41-3.61,3.23a20,20,0,0,1,1.09-9.87c3.13.53,5.32,2.77,8.22,3.75,0-1.94-1.06-3.28-1.55-4.8a20.78,20.78,0,0,1-1.22-6.33c0-6.42,3.61-8.7,9.38-5.76,3.85,2,7.58,4.14,11.41,6.14,3.27,1.72,6.54,4.91,10.2-1Z"
      transform="translate(-662.32 -248.35)" />
    <path
      d="M694.55,571.82l-.92-14.11c-5.37,1.14-11.32-2.22-15.41,4.66-.67-4.33-.26-8-.83-11.84,2.32,4.28,5.82,3,9.12,2.74,5.14-.37,10.3-.6,15.46-.87,2.43-.12,4.62-.59,5.42-3.62a41.16,41.16,0,0,1,1.21,11.82c-3.51-5.68-8.05-3.12-12.5-3.18-.53,4.87,0,9.4.46,14.61,4.2-1.45,9.23,1.41,12.15-4.52a32.13,32.13,0,0,1,.77,11.58c-1.64-3.28-4.32-3.27-7.2-3-5,.4-10,.68-14.95.94s-5,.23-8.13,3.9l-.65-11c2.3,3.39,5.35,3,8.59,2.42C689.4,572,691.74,572,694.55,571.82Z"
      transform="translate(-662.32 -248.35)" />
    <path
      d="M1014.77,827.71c3.1-2.14,2.41-4.86,1.72-7.64-1.38-5.49-2.73-11-4-16.5-.57-2.51-1.34-4.71-5.6-4.83,4.51-2.06,8.1-2.41,11.8-3.5.18,2.23-2.5,2.07-2.37,3.76a46.91,46.91,0,0,0,2.43,9.74l13.67-3.34c-1.65-4.19.18-9.63-6.88-11.36a45.65,45.65,0,0,1,11.69-2.9c-2.43,2.24-2.45,4.66-1.64,7.5,1.6,5.6,2.81,11.31,4.26,17,.85,3.32.92,3.3,4.84,4.71a41.94,41.94,0,0,1-11.42,2.84c3.17-2.38,2.55-5.27,1.58-8.18-.78-2.36-.86-4.92-2.21-7.48-4.47.54-8.8,1.95-13.94,3.21,2.65,4.71.13,11.34,7.2,14C1022.61,827,1018.63,826.52,1014.77,827.71Z"
      transform="translate(-662.32 -248.35)" />
    <path
      d="M1106.73,792.62c-1.85,2-4.36,2.55-6.54,4.34-.84-3.51-2.66-6.2-4.35-8.94s-2.59-6.13-5.43-8c-3.69,2.39-4.66,6.24-3.11,11.42,1.61,5.38,3.59,7.31,8.09,7.4-2.61,2.82-6,3.74-9.12,5.57,2.06-3.51.37-6.22-1.32-9s-3.32-5.7-4.56-7.84c-1.86-1.35-2.73.72-4.12-.4a18.82,18.82,0,0,1,4.55-5.39c2.12.89,2,3.23,3.75,4.39.45-1.55.82-3.07,1.34-4.54,2.22-6.26,5.3-6.93,9.91-2.08,1.38-1.81,1.12-4.15,2.11-6.07,2-3.83,6.23-5.73,9-.51,1.74,3.22,3.58,6.38,5.37,9.57,1.23,2.21,2.54,4.28,5.76,2.84-.29,2.16-1.88,2.19-2.9,2.86s-2.29,1.28-3.45,1.91a96,96,0,0,0-9.36-16.68c-4.08,1.93-4.9,3.8-4.29,8.71C1098.87,788.23,1101.54,791.56,1106.73,792.62Z"
      transform="translate(-662.32 -248.35)" />
    <path
      d="M1195.12,366.72c-2.87.27-3.53-1.82-6.24-1.39-8.8,6.21-17.7,13.85-27,21.13,2.17,3.32,4.29,6,7.8,7.26s6.61-.79,10.08-.51c-3.11,3.45-7.34,4.68-11.07,6.81-3.2-8.26-10.49-13.48-14.52-21.44,4.27,3.45,7.07.73,10-1.67,5.56-4.5,11.22-8.87,16.79-13.35,4.37-3.51,4.35-3.54,3.51-9.61C1188.68,358.17,1191.43,362.33,1195.12,366.72Z"
      transform="translate(-662.32 -248.35)" />
    <path
      d="M1212.7,393.55c-4.72-2.29-4.73-2.31-9.61.76-8,5-16,10.09-24.26,15.27,1.35,3.61,3.26,6.46,6.69,8.28,3.26,1.74,6.72-.41,10.06.69-3.53,3-7.86,3.78-11.71,5.38-2.47-8.45-8.75-14.51-12.36-22.52,2.44-.15,3.72,2.89,6,1.59,1.87-1.07,3.79-2.06,5.62-3.2,6.07-3.78,12.14-7.57,18.16-11.42,3.91-2.5,3.9-2.61,3.23-7.14C1207.05,382.63,1211.28,389,1212.7,393.55Z"
      transform="translate(-662.32 -248.35)" />
    <path
      d="M1056.5,289.59c1.38-2.72,2.8-5.19.46-7.62-1.8-1.87-5.72-1.07-8.7,1.16-1.83,1.37-2.32,4-4.89,5-1.1-3.12.79-5.24,1.65-7.65,4.6-1.47,9.12-2.05,13.74-.41,4.19,1.49,5.31,3.36,3.93,7.64-1.83,5.7-3.9,11.33-5.86,17-.26.77-.73,1.52-.32,2.35,1.56,2,3.42-.91,5,.31-3.39,3.33-6.2,3.82-10.33,1.85-1.28-2,.5-3.79.4-6.17-2.55.86-4.91,1.81-7.35,2.46-4.42,1.19-7.39-.09-8.69-3.53-1.18-3.13.13-6.08,3.77-8.27,3.94-2.38,8.4-3.08,12.84-3.74C1053.51,289.77,1054.84,289.73,1056.5,289.59Zm-.61,2.84a14.47,14.47,0,0,0-6.68-.2,12.94,12.94,0,0,0-6,2.28c-2.2,1.61-3,4.15-2,6.1s3.72,2.86,6.13,2.06a11.19,11.19,0,0,0,5.53-4.1A14.42,14.42,0,0,0,1055.89,292.43Z"
      transform="translate(-662.32 -248.35)" />
    <path
      d="M692.06,636.2c-1.52-2.28-1.74-4.72-2.47-7,6.43-2,13-2.81,18.81-6.67-2.61-4.95-6.74-5.29-10.88-4.91-3.86.37-8.37.29-8.85,6.41-2.57-3.36-2.38-7.1-4.14-10.51,2.29-.1,2.37,2,3.88,2.44l15.1-4.6c1.14-1.2-.85-2.49.48-3.56,1.91,1.34,3,3.33,4.2,5.11-1,2.35-3.71,1.37-5,3,1,1.32,2.64,1.39,3.87,2.13,5.63,3.4,5.76,6.69.07,10.44,1.75,1,3.45,1.87,5,2.93,1.83,1.26,3.31,2.87,3.11,5.33-.23,2.7-2.44,3.36-4.5,4-2.84.93-5.73,1.7-8.59,2.59-4.48,1.4-4.48,1.41-6.2,5.72-1.44-2.54-1.89-5.07-2.58-7.53,6.48-1.37,12.77-2.85,18.64-6.09-1.46-4.91-5.11-5.33-8.78-5.48C697.11,629.79,694.1,631.46,692.06,636.2Z"
      transform="translate(-662.32 -248.35)" />
    <path
      d="M834.67,323.09c2-.79,1.62-3.08,3.26-3.83.49,4.67-.83,7.11-5,9.44-2.52-.39-2.68-3.22-4.59-4.45-.85,2.41-1.54,4.81-2.54,7.08-1.89,4.27-4.79,5.94-8.07,4.91-3.7-1.15-5.33-4.72-4.2-9.39,1.06-4.43,3.27-8.34,5.68-12.15.53-.84,1.06-1.68,1.47-2.31.28-1.19-.38-1.82-.78-2.51-1-1.81-2.25-3.45-4.68-2.9a5.3,5.3,0,0,0-4.06,4.56,13.41,13.41,0,0,0,.35,6.91c.31.93.91,1.86-.49,2.92-2.47-1.21-3-3.93-4.43-6A22.32,22.32,0,0,1,814.18,305c4.35-3.2,6.47-2.89,9.39,1.58s5.79,9.33,8.7,14C832.88,321.5,833.32,322.65,834.67,323.09Zm-12-8.85c-3.74,3.87-5.6,7-6.15,10.22s.84,5.89,3.19,6.47,4.94-1.27,5.88-4.22a11,11,0,0,0,0-6.37A14.8,14.8,0,0,0,822.63,314.24Z"
      transform="translate(-662.32 -248.35)" />
    <path
      d="M949.27,287.14c-2.75,2.52-4.64,4.89-7.23,6.43-3.32,2-6,1.79-8.15-.53s-2.41-5.22-.53-8.26,4.67-5.17,7.58-7.12c2.34-1.55,4.76-3,7.3-4.57,0-.62,0-1.27,0-1.91-.15-2,0-4.24-2.42-5s-4.55.34-6.19,2.23a12.47,12.47,0,0,0-2.61,5.32c-.26,1.08,0,2.4-1.66,3.16-2.33-2.06-.66-4.86-1.61-7.19,3.84-3.32,7.82-5.53,12.63-5.91s6.34.85,6.72,5.68c.42,5.31.71,10.63,1.11,15.93.11,1.44-.28,3.05,1,4.2,2,.37,2.69-1.71,4.25-2.1-.53,3.12-4.57,6.68-7.27,6.42a2.48,2.48,0,0,1-2.35-2.19C949.63,290.49,949.53,289.17,949.27,287.14Zm-.65-11c-5.37,1.76-8.51,3.72-10.33,6.33s-1.79,5.3-.1,6.84,4.95,1.3,7.21-.85a9.59,9.59,0,0,0,2.42-3.73A14.2,14.2,0,0,0,948.62,276.13Z"
      transform="translate(-662.32 -248.35)" />
    <path
      d="M1170.22,698l-3,1.95c-.68-.4-.67-.88-.4-1.3,3.35-5.16,6.56-10.41,10.12-15.42,4.86-6.86,10.19-7.71,17.1-3.1a17.94,17.94,0,0,1,5.8,24.15,57.83,57.83,0,0,1-8.44,11.88c1-3.18-.53-4.73-2.8-6.16C1182.48,706.07,1176.41,702,1170.22,698Zm22.87,9.4c7.26-4.43,9.54-9.87,6.46-15.62-3.22-6-8.67-9-15.37-9.56a8,8,0,0,0-6.59,3c-2.24,2.49-4,5.22-4.36,9.15Z"
      transform="translate(-662.32 -248.35)" />
    <path
      d="M865.73,292.52c0-9.21,6.67-16.49,14.88-16.66a11.57,11.57,0,0,1,9.25,4.08c6.65,7.42,4.68,20-3.9,25.19-7.24,4.35-15.25,1.89-18.7-5.78A15.78,15.78,0,0,1,865.73,292.52Zm11.56-12.87a7.89,7.89,0,0,0-8.31,7.47c-.63,6.64,4.31,13.87,10.67,15.62,4.7,1.29,9-.86,10.35-5.23C892.45,289.87,885.27,279.78,877.29,279.65Z"
      transform="translate(-662.32 -248.35)" />
    <path
      d="M1025.64,390.16a22.52,22.52,0,0,1-8.24-2.18c2.88-5.47,4.29-11.23,5.79-16.93.76-2.87-1.17-4.35-4-3.47-4.81,1.47-10.14,8.78-10.28,13.69-.06,2,1.43,2.82,2.37,4.14-3.17.11-6.24-.75-11.28-3.33,4.54.14,5.25-2.66,6.12-5.58,2.19-7.3,4.57-14.55,6.65-21.11.09-2.51-2.23-1.85-2.63-3.66a43.45,43.45,0,0,1,8.67-.73c-2.53,5.78-4.09,11.57-5.93,18.09,2.94-1.25,4.89-3,7.37-3.64,2.17-.54,4.3-.91,6.15.67s1.54,3.84.87,6c-1.13,3.65-2.12,7.35-3.42,10.93C1022.81,385.81,1022.55,388.17,1025.64,390.16Z"
      transform="translate(-662.32 -248.35)" />
    <path
      d="M1062.85,404.1c-2.48.66-4.35,1.31-6.28,1.63-6,1-9.79-2.8-8.66-8.76s5.12-9.05,10.47-11c4.92-1.76,9.13-1,12.58,3.11a8.39,8.39,0,0,0,1.29,1,22.14,22.14,0,0,0,3.77-5.77c.56-1.58-1.73-1.87-1.47-3.54,2.89-.13,5.48,1.16,8.1,1.42-6,9-11.87,17.92-17.47,26.37.13,2,1.59,2.22,2.63,3.55-3.29.3-5.64-.67-8.21-1.39C1059.83,408.09,1062.18,406.74,1062.85,404.1Zm-10.61-5.38c.12,3.58,3,5.82,6.48,4.82a17.45,17.45,0,0,0,9.38-6.27c1.65-2.16,2.43-4.21.68-6.78-1.93-2.82-4-4-7.09-3.43C1057.18,387.86,1052.09,394.14,1052.24,398.72Z"
      transform="translate(-662.32 -248.35)" />
    <path
      d="M983.57,698.52a19.55,19.55,0,0,1,.37,8.18c-2.31.15-1.7-1.69-2.15-2.73-1-2.35-2.06-4.72-5-4.84-2.8-.12-4.56,1.66-5.91,3.9a19.29,19.29,0,0,0-1.55,14.51c2.84-3.12,6.12-5,10.43-4.71,6.4.51,9.78,5.88,7.13,11.71a12,12,0,0,1-10.53,7.29c-4.73.31-8.17-2.18-10.39-6.38-3.92-7.43-2.2-18.66,3.82-24.54C973.61,697.12,977.75,696.37,983.57,698.52ZM976.75,730c3.52,0,6-3,6-7.13s-2.72-7.75-6.15-7.74-6,3-6,7.21C970.68,726.86,973.12,729.94,976.75,730Z"
      transform="translate(-662.32 -248.35)" />
    <path
      d="M937.93,720.56c2,1.62,1.53,3.28,1.93,4.65,1.39,4.66,4.87,5.93,8.78,3.11a12.46,12.46,0,0,0,3.79-5.19c1.42-3.11,1.76-5.18,1.77-10.26a58.32,58.32,0,0,1-5.34,2.51c-4.64,1.65-9.78-.2-11.67-4.06s-.51-8.41,3.52-11.38c8.73-6.45,17.28-.06,18.4,7.1,1.22,7.74-.61,14.58-6.14,20.19-4.62,4.69-9.82,5.24-16,1.92A20.83,20.83,0,0,1,937.93,720.56ZM947.87,699c-3.68-.08-6.49,3.28-6.55,7.82-.05,3.95,2.68,7.12,6.07,7.07s6.11-3.22,6.24-7.61C953.75,702.17,951.33,699.12,947.87,699Z"
      transform="translate(-662.32 -248.35)" />
    <path
      d="M935.5,364.07c1.82-2.18,3.1-3.84,4.51-5.38,2-2.2,4.37-3.67,7.49-2.91,3.28.81,4.75,3.25,5.64,6.33,2.07,7.17-2.71,18.06-12,18.3-2.69.06-5.67.17-8.26,3.26.1-11.74-1.91-22.39-3-32.56-1.27-1.53-2.7-.33-3.91-1.73l7.58-4.19C934.17,351.45,934.79,357.37,935.5,364.07Zm1.6,12.41c8.48,3.43,13.77-.48,12.75-9.22a14.56,14.56,0,0,0-.94-3.85c-1.9-4.64-6.08-5.45-9.31-1.65A13.89,13.89,0,0,0,937.1,376.48Z"
      transform="translate(-662.32 -248.35)" />
    <path
      d="M859.28,373.25c1.65,2.83,4.11,5,4.89,8.68-7.87-3.86-8.18-3.85-13.42.27,3.52,8.72,5.68,9.66,15.2,6.25-1.21,3.59-4.85,4-6.85,6.59,1.92,4,4.92,7.52,7.39,11.7,6-2.8,8.68-7,6.42-13.86,3.41,2.49,3.37,6.19,5.39,9.06-6.85,2.63-11.81,7.6-18,10.71-.92-1.74,1.33-2.25.93-4.52-1.45-3.47-4.5-7-7-10.94-1.68-2.68-3.48-5.27-5.24-7.9-1.48-2.22-2.73-4.94-6.64-2.61C847.45,381.17,854.24,378.82,859.28,373.25Z"
      transform="translate(-662.32 -248.35)" />
    <path
      d="M729.92,441.76a56.33,56.33,0,0,1-6.12,14.12c1.06-5.72-3.09-6.63-6.66-8.12-6.58-2.74-13.13-5.54-19.69-8.32-5.05-2.13-5.06-2.12-10,2a67.33,67.33,0,0,1,6.67-15.13c-1.12,5.61,2.85,6.56,6.33,8,6.58,2.73,13.12,5.55,19.69,8.29C725.33,444.72,725.34,444.69,729.92,441.76Z"
      transform="translate(-662.32 -248.35)" />
    <path
      d="M765.8,371.61c2.43,5.46,2.77,10.81-.49,15.93a9.78,9.78,0,0,1-7.52,4.36c-11.72,1.34-19.06-10.84-17.52-19.32s10.19-12.55,17.67-6.12c-2,2.51-4,5.05-6.08,7.58L746,381.38c3.51,4.31,8.72,6.2,13.22,4.49C766,383.29,765.4,377.27,765.8,371.61Zm-12.67-2c-4.25-2.76-7.48-2.59-9.79.29s-1.76,6.91,1.45,10Z"
      transform="translate(-662.32 -248.35)" />
    <path
      d="M1143.33,343.19l-15.07-12.11c-4.65,4.6-6,9.43-4.15,13.91s6.05,6.06,14.09,5.68c.21,1.54-1.07,1.39-1.92,1.62a20.8,20.8,0,0,1-6.94.59c-7.91-.58-12.11-5.52-11.35-13.32.85-8.7,11.28-16.05,19.78-13.92S1149,335.81,1143.33,343.19Zm-3-4.72c2.56-4.32,2.37-7.77-.36-9.94-3-2.37-6.77-1.84-10,1.57Z"
      transform="translate(-662.32 -248.35)" />
    <path
      d="M836.45,802.54c3.27.76,4.46-1.11,5.45-3.38,3.05-7,6.14-14,9-20.38.18-2.12-1.92-1.88-1.94-3.53H857c-2.95,5.3-5.09,10.7-7.68,16.56,2.94-1,5.09-2.56,7.68-2.87,5.35-.64,7.65,2.09,5.71,7.09-1.32,3.41-2.83,6.75-4.47,10-1.2,2.38-1.26,4.41,1.17,6.36-3.43-.26-3.43-.26-7.4-2.69,2.84-4.27,4.37-9.18,6.53-13.78.62-1.32,1.36-2.84,0-4.18s-2.86-1-4.22-.42c-5.1,2.09-8.2,6-9.88,11.19-.64,2,1,2.93,2.13,4.84A28.9,28.9,0,0,1,836.45,802.54Z"
      transform="translate(-662.32 -248.35)" />
    <path
      d="M777.5,722.28c1.16.43,1.93.69,2.67,1,1.65.69,3.3,1.42,5.32,2.29-4.76,3.82-8.4,8.24-13.06,12.92,3.42-.29,6-.79,8.53-.07,5.4,1.51,6.4,4.43,2.71,8.58-2.09,2.36-4.38,4.55-6.54,6.85-3.24,3.44-3.23,3.45-2.56,7.7a5.94,5.94,0,0,1-1.29-.61c-1.69-1.31-3.35-2.67-5-4a109,109,0,0,0,13.63-14c-2.14-3.37-4.87-3.93-9.51-2.23-6.14,2.27-8.81,6-7.91,11.4a38.76,38.76,0,0,1-7.66-7.74c3.11,1.35,5-.13,6.82-2.14,5.08-5.46,10.31-10.79,14.95-15.62C779.34,724.37,777.25,724.2,777.5,722.28Z"
      transform="translate(-662.32 -248.35)" />
    <path
      d="M992.71,707.18c-1.76-2.41-1.71-5-2.42-7.56,3.36-3.26,6.82-6.33,11.79-6.69,5.89-.44,9.13,3.39,7.73,9.12a26.29,26.29,0,0,1-3.43,7.17c-2.82,4.66-5.66,9.32-9,14.79,5.17-1.22,9.49-2.2,13.78-3.25,2.31-.56,3.06-2.58,3.75-4.82,1.41,3,.81,5.7,1.07,8.47-7.48.42-14.26,3.54-21.8,4.42,0-2.78,1.55-4.63,2.45-6.67,2.27-5.17,4.71-10.26,7-15.44a13.92,13.92,0,0,0,1.35-7.28c-.52-4.22-4.23-5.8-7.65-3.27-2.16,1.6-2.93,3.91-3.38,6.44C993.67,704,994.4,705.6,992.71,707.18Z"
      transform="translate(-662.32 -248.35)" />
    <path
      d="M1171.09,741.19l-7.39,7.89c1-3.58-1.19-5.35-3.29-7.25-5.42-4.9-10.78-9.85-15.81-14.46-1.81-.44-2,1.67-3.79,1.06l2.84-7.57a177.33,177.33,0,0,0,13,12.18c.52-2.71-.48-5,0-7.27s1-4.67,3.52-5.58c2.24-.8,3.75.85,5.27,2.11,3.71,3.05,6.81,6.82,11,9.51l3.93-1.54c-1.6,3.21-3.89,4.73-5.45,6.82-4-5.44-9.13-9-13.54-13.26-3.74,2.66-4.13,5.15-2,10.15C1161.75,739.76,1165.57,742.34,1171.09,741.19Z"
      transform="translate(-662.32 -248.35)" />
    <path
      d="M787.88,639.9c3,4.3,6.1.64,9.52-.06,1.15,4.74,1,9.5,1.21,14.2a42.6,42.6,0,0,1-.55,6.93c-.46,3.87-1.87,7.06-6.28,8-2.3-.46-3.1-2-3-4.31.07-1.16,0-2.33.08-3.48.36-4-.12-7.43-4.27-9.68-2.53-1.37-3.23-4.31-2.34-7s2.57-4.59,5.74-4.43Zm2.1,14.15-4.92-10.78c-.79,2.36-1.79,4.59.35,6.48,1.57,1.38,3.13,2.79,4.69,4.19.38,4.3.77,8.59,1.18,13.21,4-1.09,4.22-3.86,4.81-6.71C791.77,660.32,792,656.19,790,654.05Z"
      transform="translate(-662.32 -248.35)" />
    <path
      d="M975.13,292.71c-4.85.75-9.33.2-13.84.2.07-.67,0-1.22.15-1.25,3.74-1,4.52-3.56,4.5-7.1,0-8.3.27-16.59.41-24.89,0-1.63.37-3.33-.78-5-.67-1.24-2.49,0-3.55-1.47,3.07-2.28,6.85-2.75,11.05-4.87-2.47,5.29-1.67,10-1.82,14.69-.22,6.8-.27,13.61-.37,20.41C970.79,289.35,970.8,289.35,975.13,292.71Z"
      transform="translate(-662.32 -248.35)" />
    <path
      d="M759.9,356.14c-2.42-.56-2.59,2.05-4.91,1.78,1.22-3.35,2.25-6.35,4.17-9.05,2.82.94,3.94,3.77,6.64,5.1-.18-5.27-2.72-10.92,3.53-14.68l6.26,7.38c-2.14,2.08-3.52-2.18-5.66-1.33-2.5.82-3.1,2.86-2.68,5.14a24.56,24.56,0,0,0,8.88,14.63,4.19,4.19,0,0,0,5.5.29c.79-.53,1.35-1.52,2.51-1.43-.67,2.63-6.26,8.67-11.63,12.22,3.4-5.47,0-8.14-3-11C766.06,362.09,763.15,358.42,759.9,356.14Z"
      transform="translate(-662.32 -248.35)" />
    <path
      d="M680.06,482a28.25,28.25,0,0,1,8.87,5.95c.29,1.53-.89,2.06-1,3l.12-.05a1.11,1.11,0,0,0-1.14,1.13l.13-.14c-3.12,2-1.15,4.29-.19,7.22-10.83-2.28-18.47-8.22-24.54-16.47,2.89-5.59,3.62-6,8.95-4.61,3.16.85,6.35,1.8,8.91,4.06l-13.07-3c-2,1.36-2.94,3.07-1.43,4.73,2.11,2.33,4.05,5.07,7.45,5.85l0,.36v-.24c-1.67-4-.11-6.86,4-7.07C678.18,482.72,679.42,483.53,680.06,482Z"
      transform="translate(-662.32 -248.35)" />
    <path
      d="M1125.7,317.21c-1.66,2.68-2.82,5-4.68,6.83-2.09-1.07-1.14-2.43-.79-3.59a7.26,7.26,0,0,0-2.7-8.4,7.46,7.46,0,0,0-8.83-.66,15.22,15.22,0,0,0-8.3,12.28c-.61,5.91,3.7,10.18,9.76,9.87,1.79-.09,3.54-.93,5.42-.38.3,1.43-.75,1.63-1.65,1.84a31,31,0,0,1-7.36,1.16c-8.76-.09-14.24-8.13-10.9-16.3a17.15,17.15,0,0,1,15.18-11.24C1117.62,308,1122,311.79,1125.7,317.21Z"
      transform="translate(-662.32 -248.35)" />
    <path
      d="M834.56,795.08c-8.56,4.33-22.65-.15-21.85-12.88.76-12,14.7-19.56,24.18-14.49a26.27,26.27,0,0,1,8.8,6.83,18.32,18.32,0,0,1-3.58,6.11c-1.53-.62-1-1.67-1-2.58a10.21,10.21,0,0,0-15.17-9c-5.54,2.91-9.08,10.41-7.82,16.54,1.1,5.35,6.23,9,12.73,9.27C832.06,794.89,833.39,793.79,834.56,795.08Z"
      transform="translate(-662.32 -248.35)" />
    <path
      d="M833.36,284.76c1,8.89,2.41,10,10.95,8.51-1.24,2.66-4.46,2.28-6.08,4.56,3,6.17,6.09,12.5,9.35,18.29,3.29-.16,3-3.25,5-3.91-.09,4.35-1.65,6.79-6.18,9.43-4.21-2.05-4.83-6.74-6.91-10.32S835.73,304,834,300.58c-1.91-1.28-3,1.05-4.87.24.2-1.68,2.59-2.09,2.45-3.88.1-2.74-1.93-4.82-2.6-7.47A14.06,14.06,0,0,1,833.36,284.76Z"
      transform="translate(-662.32 -248.35)" />
    <path
      d="M1211.62,639c-2.13,4.34-1.24,7.22,2.75,10.84,4.52,4.1,8.15,4.79,12.8,1.85-1.4,3.76-2.58,6.89-3.75,10-.88-4.44-4.5-5.17-7.72-6.36l-8.08-3c-1.83,0-1.39,2-3.13,2.38-.68-2.33-.33-4.65-.11-7,2.37-.87,4,1.74,6.37,1a46.45,46.45,0,0,1-2.56-5.8c-.65-2.24-.91-4.63,1-6.56s4-.94,6-.2c4.33,1.6,8.63,3.31,12.29,4.72,2.25,0,2.59-1.88,4.31-2.16,0,2.84-1.86,4.85-2.25,7.58A183.43,183.43,0,0,0,1211.62,639Z"
      transform="translate(-662.32 -248.35)" />
    <path
      d="M750.09,406.84c-7.4-3.12-13.29-9-20.3-12.84-1.91.07-1.81,2.77-3.76,2.77.54-4.69.54-4.69-5.79-10.41.79-1.74.23-4,2.2-6.35.78,3.76,3.21,5.4,6,6.53,3.72,1.51,4.53-2.93,7.45-4.15-.29,3.08-2.93,4.42-3.46,7.24l17.16,11.59c2.48-1.81,1.12-4.24,2.35-5.85C754.27,399.68,753.76,403.43,750.09,406.84Z"
      transform="translate(-662.32 -248.35)" />
    <path
      d="M957.65,832.14H946.58c.57-2,3.21-2.07,3.2-4.1,0-1.83.17-3.65.21-5.48,0-2.49,0-5,0-7.47a4.84,4.84,0,0,0-.2-1.13c-.64-1.61-2.43-.28-3-2a14.87,14.87,0,0,1,6.52-2.43c1.28,2,0,4.12,1.13,6.18,1.62-1.5,3.08-3.06,4.73-4.36,1.89-1.49,4.11-2.48,6.47-1.27s2.29,3.48,2.28,5.66c0,2.82-.13,5.65-.17,8.47-.08,5-.07,5,3.33,8.2h-8a31.36,31.36,0,0,0,.7-10.32c-.22-3.22,1.77-7-1.55-9.65-6.1,2-10.42,10.48-8.57,16.1C954.22,830.29,956,830.59,957.65,832.14Z"
      transform="translate(-662.32 -248.35)" />
    <path
      d="M909.13,373.29c-2-2.24-2.19-4.19-2.35-6.37a16.46,16.46,0,0,1,8.51-6.29c4-1.24,5.46-.56,6.64,3.49s2.17,8.35,3.3,12.51a6.3,6.3,0,0,0,1.32,3.12c1.6.17,1.88-1.73,3.13-2,1.27,1.33-1,4-5.12,6.19-2-1.83-2-1.83-3-4.49-1.84,1-2.38,3-3.67,4.4-2.93,3.11-5.35,3.82-7.76,2.07-2.58-1.89-2.93-4.9-.83-8.47a30.3,30.3,0,0,1,6.61-7.41c.87-.75,1.67-1.58,2.46-2.34-.23-2.15-.43-4.13-2.76-5.19C909.58,363.14,910.21,368.37,909.13,373.29Zm10.26-3.4c-3.23,1.75-5.74,3.71-7.27,6.73-1.23,2.42-.75,4.53,1.1,5.65s4,.25,5.4-2C920.57,377.1,920.43,373.77,919.39,369.89Z"
      transform="translate(-662.32 -248.35)" />
    <path
      d="M976.72,813.16c3-2.48,5.76-4.17,9.2-4.6,3.62-.44,5,.37,5.45,4,.59,4.28.85,8.61,1.29,12.91a18.26,18.26,0,0,0,.46,2.2c1.54,1.1,2.32-1.47,4-.25-1.63,2.2-3.41,4-6,4.3-2.46-.77-1.89-2.8-2.56-4.57-1.69,1.41-3.2,2.85-4.89,4.05-2.86,2-4.84,2-6.67,0s-1.8-4.45-.12-6.88a23.38,23.38,0,0,1,7.47-6.51c1.12-.68,2.2-1.44,3.26-2.15.55-2.48,0-4.35-2.16-5.44-5.28.51-5.79,4.87-7.17,9C976.33,817.21,977.16,815.18,976.72,813.16Zm11.1,5.05a13.19,13.19,0,0,0-7.47,4.8c-1.57,2-1.47,4.14.12,5.28,2,1.43,3.81.7,5.28-.86C988.22,824.84,988.65,821.73,987.82,818.21Z"
      transform="translate(-662.32 -248.35)" />
    <path
      d="M1204,666.36c-1.19-1.58-2.65-1.87-4-2.3-3.62,3.54-3.62,3.54,1.35,11.68-2.67-.35-2.67-.35-5.26-2.14-.44-3.39-.63-6.84,1.09-10.1s3.11-3.78,6.42-2.21c4.49,2.12,8.89,4.43,13.21,6.6,1.9-.74.5-2.55,1.48-3.5.25.09.65.1.74.27a6.57,6.57,0,0,1,.16,6.92c-2.07,1.3-3.32-.35-5.14,0a22.2,22.2,0,0,1,1.11,5.84c0,3.43-1.07,5.26-3.52,5.8-2.64.59-4.82-.71-6.12-3.88a24,24,0,0,1-1.58-9.78C1204,668.37,1204,667.22,1204,666.36Zm2.45.41a15.81,15.81,0,0,0-.07,9c.59,1.92,1.88,3.73,4.32,3.12s2.66-2.71,2.29-4.77C1212.34,670.54,1209.79,668.64,1206.44,666.77Z"
      transform="translate(-662.32 -248.35)" />
    <path
      d="M1050.06,386.1c-2.73-1.21-5.13-2.24-7.5-3.34s-4.47-2.17-6.93-3.38c-2.67,3.59-3.19,7.39-1,11.07,3,5,7.79,3.83,13.27,2-4.69,4.41-11,5.24-14.79,2.69s-5.2-8.1-3.21-13c2.07-5.05,6.08-7.92,11.18-9C1047.84,371.73,1052.36,378,1050.06,386.1Zm-13.72-8.25c2.4,1.19,4.29,2.18,6.22,3.08,1.34.63,2.57,1.54,4.17,1.66,1-2.8.88-5.57-1.88-7S1039.05,374.77,1036.34,377.85Z"
      transform="translate(-662.32 -248.35)" />
    <path
      d="M729.16,679.81a14.55,14.55,0,0,1,4.71.75c4.56,2,7.52,6.37,7.16,10.88s-4.48,8.62-9.51,9.54a13,13,0,0,1-6.85-.38c-5.36-1.93-8.65-6.89-7.8-11.82S723,679.82,729.16,679.81Zm-1.94,19.29c4.6-.11,9.11-4.38,10.08-9.51.89-4.76-2.17-8.19-7-7.81-5.2.4-10.13,6.19-9.74,11.41A6.08,6.08,0,0,0,727.22,699.1Z"
      transform="translate(-662.32 -248.35)" />
    <path
      d="M869.49,309.37a39.26,39.26,0,0,1-13.36,5.85c4.21-3.29,2.58-6.68.92-10.23-2.15-4.63-3.71-9.53-6-13.61-2.06-.66-2.83,1.09-4.12,1.07-.22-.44-.55-.86-.47-1a37.46,37.46,0,0,1,6.88-6.77c1.93,2.45,2.61,5.2,3.72,7.72,1.73,3.95,3.4,7.93,5.07,11.91C863.42,307.41,864.67,310.47,869.49,309.37Z"
      transform="translate(-662.32 -248.35)" />
    <path
      d="M701,588.92c4.82,3.87,5.26,10.59.82,14.47a12.09,12.09,0,0,1-12.14,2.3,11.8,11.8,0,0,1-8.57-9.45c-.89-4.71,1.18-8.49,5.56-10.49,5.36-2.45,11-1.16,14.46,3.29a2.33,2.33,0,0,1-1.83-.51c-4.08-2.68-10.83-.25-13.67,3.66-1.79,2.47-2.5,5.16-1,7.88s4.24,3.49,7.25,3.21C699.59,602.57,703.29,596.73,701,588.92Z"
      transform="translate(-662.32 -248.35)" />
    <path
      d="M910.86,724.19c1.7-1.85,3.51-.32,5.29-2.39,2.15-7.31,4.32-15.6,6-23.55-1.34-2.38-3.74-.77-5.84-2.85l13.13-1.19c-2.39,2.1-2.85,4.88-3.53,7.59-1.41,5.64-2.91,11.26-4.36,16.89-1.33,5.13-1.32,5.14,3.11,9.14Z"
      transform="translate(-662.32 -248.35)" />
    <path
      d="M718.25,665.28l-6.43-13.84c-4.26,1.49-7.07,4.11-7.37,8.28-.35,4.78,3.59,6.68,7.58,8.59a11.72,11.72,0,0,1-10.53-4.91c-2.06-3.23-1.5-6.36.41-9.38,3.73-5.87,13.17-7.34,18.57-2.93C725.58,655.27,724.92,660.71,718.25,665.28Zm-.25-4.16c2.81-2.28,4-4.46,2.71-7.36-1.05-2.3-3-2.88-6.87-2.09C715.17,654.7,716.47,657.66,718,661.12Z"
      transform="translate(-662.32 -248.35)" />
    <path
      d="M1229.53,590.57c-.36,5.07-1.6,9.72-2.42,14.39,4.6,1.57,8.35,1,10.57-1.88,3.13-4,1.13-7.8-1.14-11.55,4,1.58,6.65,7.23,5.62,11.62-.9,3.81-5.48,7.06-10,6.77a13.73,13.73,0,0,1-11.9-7.9A8,8,0,0,1,1229.53,590.57Zm-4.23,14.35c.72-3.88,2.22-7.12,1.54-10.92-3,.43-5.25,1.4-5.68,4.35S1222.47,603.2,1225.3,604.92Z"
      transform="translate(-662.32 -248.35)" />
    <path
      d="M744.72,700.89c-.24-1.5-1.53-2-1.23-3.1.25-.38.62-.53.88-.25,1.34,1.38,2.74,1.45,4.52.76a16.12,16.12,0,0,1,5.79-1.34c3.82,0,6.69,1.45,8.24,5.26-1.59,1.54-3,3-5.44,3.67-.44-2.46,3.07-3.85.75-6.45-2.29-1.25-4.66-.56-6.85,1.32-2.59,2.22-1.26,4.65.73,7.5-3.05-.89-3.24-3.18-5.07-4.17-3.11,2.26-6.32,4.59-9.54,6.91-2.18,1.56-4.59,3-2.61,6.67-3.23-2.62-4.93-5.7-7.26-8.86,2-.51,2.68,1.36,4.67.93A132.35,132.35,0,0,0,744.72,700.89Z"
      transform="translate(-662.32 -248.35)" />
    <path
      d="M967.74,378.74h-10.4c.11-1.87,3-1.84,2.85-3.94-.15-1.82,0-3.66,0-5.48,0-7,0-13.95-.29-20.9-1-1.54-2.68-.51-4.39-1.32,3.08-2,6-2.88,8.81-4.07-.67,10.36.07,20.44,0,30.52,0,2.43,1.63,3.67,4.12,4.35Z"
      transform="translate(-662.32 -248.35)" />
    <path
      d="M801.11,765.45,789,755.9c-3.11,3.18-4.34,6.71-2.85,10.6,1.8,4.73,6.38,4.36,10.85,4.64-7.54,3.59-14.48.83-15.66-5.84a10.54,10.54,0,0,1,2.64-8.76,14,14,0,0,1,7.48-4.64c4.11-1.11,7.66-.22,10.27,3.12S803.35,761.54,801.11,765.45Zm-11-10.71c3,2.42,5.4,4.82,8.58,6.44,1.73-2.64,1.75-4.95-.42-6.85C795.81,752.16,793.15,752.7,790.12,754.74Z"
      transform="translate(-662.32 -248.35)" />
    <path
      d="M1062.66,799.35l-14.32,5.5c1.26,4.1,3.39,7.15,7.51,7.92,5.13,1,7.05-3.36,9.58-7-.17,5.63-4.3,10.66-8.8,11.16s-9.61-3.47-10.66-8.67a14,14,0,0,1,1.28-10.16c1.81-3.07,4.51-5,8.14-4.8C1058.82,793.55,1061,795.77,1062.66,799.35Zm-4.68.11c-2.35-3.49-4.41-4.41-6.91-3.25-2.19,1-3,3.25-2.34,6.69Z"
      transform="translate(-662.32 -248.35)" />
    <path
      d="M984.19,379.4a14.47,14.47,0,0,1,1.19-6.68c1.72.13,1.51,1.28,1.61,2.23a6,6,0,0,0,2.91,4.94,4.18,4.18,0,0,0,5.47-.61,3.76,3.76,0,0,0,.23-5.42,56.43,56.43,0,0,0-4.58-4.57c-3.49-3.35-4.25-5.53-2.78-8.15s5-3.89,8.8-3.11a7.84,7.84,0,0,1,4.23,1.9c.09,2.12.19,4.34-1.4,6.6-1.63-1.37-1.08-3.27-1.9-4.61-1.3-2.12-3.19-3.15-4.87-2.39-2,.89-2.5,3-.91,5a61.29,61.29,0,0,0,5.28,5.29c2,1.9,3.83,3.87,2.67,6.93a8.26,8.26,0,0,1-7.17,5.38A11.1,11.1,0,0,1,984.19,379.4Z"
      transform="translate(-662.32 -248.35)" />
    <path
      d="M885.3,379.82c-2.46-.82-3-2.67-4.67-3.26-2.12-.76-4.38-.2-5.23,1.51s.25,3.74,2.78,4.35c2.74.66,5.59.8,8.35,1.33,4.69.92,6.33,3.88,4.79,8.37s-4.93,6.55-11.2,6.83a15.39,15.39,0,0,1-3-6.34c2.09-.4,2.44,1.28,3.42,2a5.87,5.87,0,0,0,4.61,1.41c2.17-.4,3.7-1.57,3.93-3.87.21-2.07-.82-3.43-2.75-4.23-2.38-1-4.92-.72-7.37-1.12-4.14-.68-5.84-1.91-6.26-4.63s1.07-5.57,4.1-7.37a8.67,8.67,0,0,1,1.79-.86c1.1-.32,2.11-1,3.71-.76A9.88,9.88,0,0,1,885.3,379.82Z"
      transform="translate(-662.32 -248.35)" />
    <path
      d="M889,363.72c.59-.64,1.23-1.38,1.94-2.06.45-.45,1-.81,1.89-1.53.28,2.62,0,4.89,1.34,6.92,1.81,2.72,4.19.77,6.47.89-.72,2.34-3.11,1.69-4.73,3.51,1.59,5.06,3.81,10.28,5.73,15.23,2.67.47,2.83-2.07,5.38-2.81-1.67,3.61-3,6.22-6.88,7.54-4.47-5.27-5-12.41-8.29-18.21-1.19-1.15-2.36.8-3.57.06C890.68,369.68,890.68,369.68,889,363.72Z"
      transform="translate(-662.32 -248.35)" />
    <path
      d="M897.93,823.9c.47-1.95,1-3.92,1.58-6.51,2,2,1.2,3.86,2,5.27a5.39,5.39,0,0,0,4.29,3.05,3.67,3.67,0,0,0,3.68-2.1c1-1.91.31-3.57-1-5-1.46-1.59-3-3.08-4.54-4.63-1.76-1.79-2.73-3.81-1.56-6.3,1-2,4.35-3.92,6.71-3.5,2.09.37,4.28.74,5.92,2.55a10.28,10.28,0,0,1-1.41,5.87c-1.78-.7-1.22-2.1-1.49-3.14a4.14,4.14,0,0,0-2.74-3.28c-1.1-.33-2.33-.46-3.21.6a2.64,2.64,0,0,0-.28,3.23c1.07,1.94,2.8,3.28,4.3,4.83,3.83,4,4.42,5.76,2.71,8.6-1.9,3.13-6.72,4.67-10.64,3.26A8.76,8.76,0,0,1,897.93,823.9Z"
      transform="translate(-662.32 -248.35)" />
    <path
      d="M884.31,806.45c-1.78-2,.05-3.76-.7-4.23-2-1.76-3.32-1.52-4.42-.79a17.63,17.63,0,0,0-7.57,11.81c-.54,2.69,2.32,3.11,3.07,5.33l-10.91-3.66c3-.78,4.28-2.73,5.05-5.34.89-3,1.92-6,3-8.94.76-2.07.27-3.47-2.58-4.29,3-1.54,5.32-1,7.46-1.22.92,2.62-1.06,4.24-.75,6.55,3.37-1.67,6.22-5.34,10.81-2.62A15.11,15.11,0,0,1,884.31,806.45Z"
      transform="translate(-662.32 -248.35)" />
    <path
      d="M1108.38,757.41c-1.85-.14-2.19,1.39-3.78,1,.91-2.72,2.84-4.72,4.2-7.09,5.42,7.65,10.75,15.1,16,22.62,1.45,2.08,3,3.56,6,2.21-2.22,3.23-5.44,4.73-8.67,6.79,1.85-3.44.38-5.92-1.6-8.54C1116.28,768.8,1112.35,763,1108.38,757.41Z"
      transform="translate(-662.32 -248.35)" />
    <path
      d="M1228.54,578.64c-2.2-3-6.49-5.1-4.51-10.13a15.9,15.9,0,0,1,7.11,1c-.65,2.33-3.36.77-3.77,2a3.49,3.49,0,0,0,.92,4.58c3.34,3.11,7.49,4.21,11.85,4.57,3,.25,3.59-2.28,4.66-4.48a29.43,29.43,0,0,1-1.34,12.9c-.72-4.42-3.17-5-6-5.07-3.8-.06-7.51-1.46-11.13-.86-1.39.53-.83,1.92-1.8,2.75-1.56-2.06-1.71-4.45-2.14-6.74C1224.45,577.76,1226.47,579.55,1228.54,578.64Z"
      transform="translate(-662.32 -248.35)" />
    <path
      d="M1231.68,614c4.55,4,6.23,9,4.81,12.71a9.72,9.72,0,0,1-8.51,5.92c-5.1.14-10.39-3.34-12.61-8.29-2-4.53-1.09-8.47,3.28-13.22,1.61.86,3.75.48,5.29,1.87-.25,2.09-1.77,1.1-2.72,1.32-2.43.56-4.35,1.75-5,4.3a6.3,6.3,0,0,0,1.75,6.41,11.35,11.35,0,0,0,11.5,2.89c3.81-1.09,5.46-4.63,4.25-8.79C1233.3,617.65,1232.57,616.23,1231.68,614Z"
      transform="translate(-662.32 -248.35)" />
    <path
      d="M1225.66,552.48c1.93,0,3.71-.14,5.37.72-.6,1.9-2.33,1.43-3.34,2.19-1.43,1.07-2.4,2.32-2,4.19a2.55,2.55,0,0,0,1.84,2.15c1.73.45,2.86-.62,3.8-1.8,1.24-1.55,2.37-3.19,3.52-4.82,1.61-2.31,3.49-4.12,6.6-3.24a7.67,7.67,0,0,1,5.6,6.36,5.52,5.52,0,0,1-7.87,7.65c.47-2,2.16-1.47,3.22-2,1.9-1,3.14-2.49,3.06-4.72a3.84,3.84,0,0,0-2.14-3.67,3.58,3.58,0,0,0-4.14.67c-1.77,1.56-2.9,3.62-4.29,5.48-1.64,2.2-3.31,4.3-6.52,3.37-2.52-.73-4.46-3.85-4.45-7.11C1223.9,556,1224,554.18,1225.66,552.48Z"
      transform="translate(-662.32 -248.35)" />
    <path
      d="M1144.69,737.82c1.66,1.55,3.22,2.78,4,4.68-1.32,1.31-2.16,0-3.14-.41-4.67-1.79-8.8,1.33-8.42,6.36a11.63,11.63,0,0,0,7.87,9.43c4.16,1.11,7.61-1,8.78-5.17.39-1.41-.14-3,.81-4.31,1.93,3.36.85,9.2-2.18,11.93a9.19,9.19,0,0,1-11.12.52,13.32,13.32,0,0,1-6-12.89C1135.74,742.6,1139.31,739.49,1144.69,737.82Z"
      transform="translate(-662.32 -248.35)" />
    <path
      d="M768.41,716.85a10.14,10.14,0,0,1,4.56,2.21c-2.12,1-4.38,1.52-5.6,3.55-1.44,2.39.66,3.93,1.65,6.47-2.42-.82-3-2.75-4.83-3.89l-11.7,10.41c.61,2.25,2.48,2.07,4.25,3.39-3.94.52-6.44-.37-9-3.32,3.52-5.41,9.44-8.53,13.65-13.47L759.64,719C763.8,721.5,766,718.55,768.41,716.85Z"
      transform="translate(-662.32 -248.35)" />
    <path
      d="M927.88,800.93c-2.84,6.27-2.47,7.49,3.19,10-1.78,1.33-3.64-.53-5.52.64a127.7,127.7,0,0,0-2.08,15c1.63,2,3.08-.76,4.84.48-2.35,2.25-4.76,3.49-8.38,2.7-1.33-6.47,1.58-12.64,1.41-19-.6-1.16-2.32-.14-2.84-1.47,3.63-1.95,3.63-1.95,4.82-7.09A5.6,5.6,0,0,1,927.88,800.93Z"
      transform="translate(-662.32 -248.35)" />
    <path
      d="M970.08,378.21c3.61-.68,4-3.11,4.22-5.94.27-4.27,1.05-8.52.63-12.4-.86-1.54-2.57-.17-3.2-1.95,2.18-1.41,4.67-1.85,7.81-2.43-.34,5.38-.54,10.44-1,15.46-.51,5.34-.62,5.33,3.37,9.15l-11.2-1Z"
      transform="translate(-662.32 -248.35)" />
    <path
      d="M1081.76,805.83c-3.21,2.33-6.75,3-10.33,5.15.08-2.38,2.26-3,1.81-4.57a30.08,30.08,0,0,0-1.24-3.76c-1.5-3.5-3.08-6.95-4.39-9.89-1.59-1.44-2.53.31-3.95-.36,1-2.33,3.2-3.55,4.86-5.47,1.91,1.33,2.22,3.39,3,5.1,1.41,3,2.67,6.08,4,9.11C1077.35,805.15,1077.36,805.14,1081.76,805.83Z"
      transform="translate(-662.32 -248.35)" />
    <path
      d="M931.61,830c4-1,4-4.05,4.23-7,.25-3.47.54-6.94.78-10-.57-1.87-2.27-.77-3.25-2.08a13.14,13.14,0,0,1,6.51-2.1c1.5,1.22.77,2.61.69,3.84-.26,3.81-.52,7.62-1,11.41-.35,2.88-1.12,5.75,3.78,6.62l-1.19.94-9.92-.69Z"
      transform="translate(-662.32 -248.35)" />
    <path
      d="M891.08,803.64l-2.77-1.29c2.46-2.05,5-1.23,7.91-1.13-1.7,6.54-3.31,12.74-4.93,18.94.07,1.71,2.57,1.79,2.32,3.9l-9.87-2.6c4.2-1.22,4.54-4.71,5.27-7.9S891.22,807.31,891.08,803.64Z"
      transform="translate(-662.32 -248.35)" />
    <path
      d="M1125.61,758.5c-1.93-1.1-2.53,1.12-4,0a21,21,0,0,1,3.71-5.92c2.87,2,4.35,5,6.47,7.44,1.53,1.74,2.85,3.65,4.34,5.42,2.15,2.57,2.18,2.54,6.22,2-2.36,3.19-5.47,4.84-8.34,7.33-.93-2,1.72-3.23.47-4.83-.92-1.17-1.7-2.45-2.61-3.62C1129.64,763.48,1127.36,760.68,1125.61,758.5Z"
      transform="translate(-662.32 -248.35)" />
    <path
      d="M1126.39,370.21c4.92-.87,10.39.15,13.6-5-.21-1.55-1.72-1.55-2.41-2.41a3.1,3.1,0,0,1-.24-4.11,3.29,3.29,0,0,1,4-1.12c4.44,1.51,5.52,6.76,1.79,9.95C1138.2,371.71,1132.49,372.39,1126.39,370.21Z"
      transform="translate(-662.32 -248.35)" />
    <path
      d="M1206.44,460.93a3.91,3.91,0,0,1,3.55,4,4,4,0,0,1-3.9,3.69,4.17,4.17,0,0,1-3.59-4.07A3.85,3.85,0,0,1,1206.44,460.93Z"
      transform="translate(-662.32 -248.35)" />
    <path d="M694,499c-4.44-3.21-4.9-4.58-2.95-8.65.69-.39,1.26,0,1.83.31.73.35,1.43.74,1.91,1,1,2.86-.92,5-.92,7.46Z"
      transform="translate(-662.32 -248.35)" />
    <path
      d="M850.69,276.62c-.16,1.76-2,3.33-3.41,2.94a2.9,2.9,0,0,1-2.46-3.2,2.71,2.71,0,0,1,3.34-2.71A2.85,2.85,0,0,1,850.69,276.62Z"
      transform="translate(-662.32 -248.35)" />
    <path
      d="M980.76,347.06c-.15,1.72-.92,2.82-2.39,2.86a2.28,2.28,0,0,1-2.39-2.53,2.24,2.24,0,0,1,2-2.35C979.67,344.83,980.24,346.05,980.76,347.06Z"
      transform="translate(-662.32 -248.35)" />
    <path d="M1119.41,750c-2.64-2.78-2.64-2.78.16-5C1122.21,747.43,1122.21,747.43,1119.41,750Z"
      transform="translate(-662.32 -248.35)" />
    <path d="M1064.43,778c1.88,1,3.21,2,1.73,4a1.9,1.9,0,0,1-3.33.06C1061.28,780.13,1062.6,779.1,1064.43,778Z"
      transform="translate(-662.32 -248.35)" />
    <path
      d="M896.48,795.85c-1.82-.87-3.31-1.88-1.59-4.07a1.85,1.85,0,0,1,3-.11C899.79,793.74,898.42,794.88,896.48,795.85Z"
      transform="translate(-662.32 -248.35)" />
    <path
      d="M939.67,798.73c1.24.14,2.23.67,2.24,2a2.06,2.06,0,0,1-2.43,2.31,2,2,0,0,1-2-2.26A2.11,2.11,0,0,1,939.67,798.73Z"
      transform="translate(-662.32 -248.35)" />
    <path d="M687.94,491c1.53,2.58.16,6.21,3.51,8.13-4.66-1.57-4.66-1.57-4.4-7.19l-.13.14c.79,0,1.22-.3,1.14-1.13Z"
      transform="translate(-662.32 -248.35)" />
    <path d="M877.85,496.87A4.84,4.84,0,0,1,880,493l-.09,0a1.83,1.83,0,0,0,2.12,1.09l-.08-.15-3.87,3.18Z"
      transform="translate(-662.32 -248.35)" />
    <path d="M916,454.05c.34-1.05,1.14-1.14,2.06-1l-.12-.13c-.31,1.08-1.11,1.15-2,1Z"
      transform="translate(-662.32 -248.35)" />
    <path d="M762.06,543,761,541.93l-.06.09,1,1Z" transform="translate(-662.32 -248.35)" />
    <path
      d="M1010,553c-.67,0-1.15.19-1,1-3.7,1-5.89,4.06-8.66,6.31-1.91,1.56-3.61,3.37-6,5.64-.19-2.81-.34-5-.53-7.76a57.27,57.27,0,0,0-19.92-.18c1.65,23.63-8,40.73-29,51.48a33.34,33.34,0,0,0,15.48-3.6c7.43-3.46,13-9.21,18.15-15.33,6.25-7.37,11.57-15.43,17.45-23.08,2-2.57,3.62-5.57,7.08-6.59-.56,2.62-3,3.81-4.42,5.81Q992,576.13,985,585.22c-5.8,7.54-12,14.67-20.09,19.95-9.94,6.5-20.75,8-32,4.91-10.13-2.76-17.75-8.58-21.12-19.21-4.79-15.17-5.76-30.59-4.23-46.31A111.31,111.31,0,0,1,914.09,516a22.45,22.45,0,0,1,4.92-8,13.17,13.17,0,0,1,9.26-4.28c5.66-.17,8.18,1.48,10.59,7.14-.31,2.07-2,3.33-3.05,5s-2.19,3.36-1.52,5.76c2.75,1.31,4.66-2,7.87-1.57-1.28,5.66-.52,11.66-5.25,16.29,7.34.93,8,.5,14.77-10.11,1.48.13,1,2,2,2.46a2,2,0,0,0,1.14-1.61c2.1-13.14-9.91-23.76-18.29-25.91-7.34-1.89-14.11-.57-20.76,2.7-1.58.78-2.78,2.49-4.84,2.22,1.35-3.11,4.6-3.49,7.14-4.83a31.42,31.42,0,0,1,5.33-1.73c1.28-3.47-.46-7.25.89-10.71.62-.77,1.46-.62,2.28-.59q28,.87,55.93,1.72c2,.06,4.08-.24,4.78,2.46,1.61-1.53,3.07-2.37,5.12-2.21,10.48.85,21,.79,31.47.84a10.1,10.1,0,0,1,1.88.33c1.58,4.28,1.58,4.78,0,10.25-1.51,1-3.21.25-4.83.39-4.74.39-6.89,2.53-7,7.24-.23,11.33-.56,22.66-.56,34C1013.42,547,1012.8,550.32,1010,553Zm-65-50c-.29-.51-.55-1.09-1.31-.21l1.4.1c.87,2.45,3.35,3.46,4.8,5.4s3.1,3.78,4.66,5.66C952.88,508.92,950.44,504.58,945,503Zm10.75,30.43c-1.88,3.14-4.66,1.87-6.46,3.61-5,4.79-11.1,6.38-17.85,6.11-1.21,0-2.35-.1-3-1.75,1.18-4.71,5.88-8.12,6.49-13.77-1.4-.25-2.87.13-4-1-.9-2.78.17-5.43,1.12-8.08,1.43-4,.84-7.08-1.76-9s-6.25-1.7-9.41.25a10.79,10.79,0,0,0-4.13,5.46c-9.45,22.44-9.85,45.56-5.17,69a37.24,37.24,0,0,0,4.78,12.5c.51.82.87,2,2.47,2.27-4.7-11.62-1.45-21.89,3.65-31.94-2.33-9.42.13-15.35,7.46-17.83.91.64.82,1.71,1.13,2.63,1.17,3.52,2.61,4.37,6.33,4.18a8.18,8.18,0,0,0,4-1.72A82.52,82.52,0,0,1,960,545.87c9.5-3.25,19.24-3.16,29.05-3,1.91,0,4,.65,5.77-.64.57-9.39,1-18.69.82-28a70.62,70.62,0,0,0-.76-7.94,4.51,4.51,0,0,0-2.85-3.78C984,499,975.24,504,974.68,512.78c-.48,7.47-.33,15-.53,22.47-.06,2,.39,4-.73,6.17a169.57,169.57,0,0,0-18.51,4.47C955.87,541.86,955.92,538.41,955.79,533.42ZM929,565.57c-3.61,4.34-6.51,8.8-7.53,14.17-1.34,7-1,13.9,5,18.76,6.62,5.4,14.26,8.25,22.7,4.52,11.79-5.21,18.58-14.77,21.65-27a46,46,0,0,0,.74-18c-3.31.61-6.22,1.11-9.06,2.56-.6,5.32-.31,10.64-.31,15.94,0,11.48-8.25,21.67-17,24.88a12.69,12.69,0,0,1-13.1-2.2c-3.92-3.15-4.91-7.46-3.82-12.16a28.78,28.78,0,0,1,5.36-11.17c10.55-13.64,24.19-21.45,41.63-22.43,7.5-.42,15,.64,22.43.16a5.93,5.93,0,0,1,4.85,2.28l8.62-6.77c.25-13.62.55-27.09.73-40.56.11-8.08,3.24-11.35,11.45-11.66a4.56,4.56,0,0,0,1.3-.45,3.44,3.44,0,0,0-.6-3.46c-10.69.2-21.73-1.27-32.69-.78-.85,1.31-1,2.38-.16,3.43,6.52.43,11.31,4.61,10.95,12.65-.46,10.48-.23,21-.36,31.47,0,1.61.4,3.36-1,4.88-4.23,0-8.57.28-12.86,0-17-1.34-32.61,2.6-46.74,12.26a7.77,7.77,0,0,1-10.9-2.19c-.7-1.06-.34-2.68-1.79-3.32C923.44,556.65,923.49,560.71,929,565.57Zm43-26.05c.21-2.27.5-4.08.54-5.9.16-7.65.25-15.3.36-22.95A23.76,23.76,0,0,1,975,500.51c1.33-2.72,3.37-4.48,6.54-4.66,1-.05,2,.15,2.83-.71.46-.9.63-1.82-.5-3.44l-57.42-1.5c-.71,1.34-.69,2.26.35,3.86,3.49,0,7.45-.05,11.41,0a27.36,27.36,0,0,1,15.43,4.9c6,4.13,9.49,9.6,9.27,17.16-.2,6.48.2,13-.6,19.43-.22,1.76-.61,3.63.45,5.4C965.87,541.29,968.64,540,972,539.52ZM955.9,562.59a60,60,0,0,0-17.45,13c-3.43,3.63-6.64,7.45-7.89,12.46s.56,9.08,5,11.18,10.21.58,12.83-3.25C955.12,586.05,956.16,574.86,955.9,562.59Z"
      transform="translate(-662.32 -248.35)" />
    <path
      d="M1010.07,626.94c.06,1.51-2,1.6-2,3.09-4.6,2.52-4.6,2.52-6.5,5.75l-.74-1.39c-1.91-.27-3,2-4.89,1.66C1000.29,632.47,1005.2,629.73,1010.07,626.94Z"
      transform="translate(-662.32 -248.35)" />
    <path d="M903.07,618.06c-.87.12-1.18-.32-1.14-1.13C902.72,616.9,903,617.34,903.07,618.06Z"
      transform="translate(-662.32 -248.35)" />
    <path d="M1029.06,605.93c-.46,1.82-.14,4.23-3.13,4.13C1026.38,608.23,1027.1,606.61,1029.06,605.93Z"
      transform="translate(-662.32 -248.35)" />
    <path d="M1008,629.93l1.13,1.14Z" transform="translate(-662.32 -248.35)" />
    <path d="M930.09,451.05a2,2,0,0,1-2.16-1.1C928.71,450.19,929.7,450,930.09,451.05Z"
      transform="translate(-662.32 -248.35)" />
    <path d="M931.07,452.07c-.67-.09-1.13-.39-1.13-1.14C930.52,451.1,931.06,451.33,931.07,452.07Z"
      transform="translate(-662.32 -248.35)" />
    <path d="M939.94,444.92l1.14,1.16C940.55,445.84,940.06,445.56,939.94,444.92Z"
      transform="translate(-662.32 -248.35)" />
    <path d="M987.09,643.05a1.93,1.93,0,0,1-2.17-1.11C985.7,642.2,986.77,641.89,987.09,643.05Z"
      transform="translate(-662.32 -248.35)" />
    <path d="M990.07,642c0-.82-.12-1.75,1.08-1.94L991,640c-.26.7-.21,1.57-1.07,1.94Z"
      transform="translate(-662.32 -248.35)" />
    <path d="M988.07,644.07c-.78,0-1.19-.33-1.14-1.14A1,1,0,0,1,988.07,644.07Z"
      transform="translate(-662.32 -248.35)" />
    <path d="M990,641.92l-.1.38.21-.28Z" transform="translate(-662.32 -248.35)" />
    <path d="M1017.93,466.06c.34-1.08,1.42-.74,2.13-1.11C1019.66,465.93,1018.71,465.83,1017.93,466.06Z"
      transform="translate(-662.32 -248.35)" />
    <path d="M1010.1,456.93a2.79,2.79,0,0,1-2.18,1.12C1008.28,457,1009.36,457.28,1010.1,456.93Z"
      transform="translate(-662.32 -248.35)" />
    <path d="M996.93,452.07c.26-1.26,1.35-.94,2.17-1.13A2.66,2.66,0,0,1,996.93,452.07Z"
      transform="translate(-662.32 -248.35)" />
    <path d="M1021.05,622.08c-1.29-.74-.66-2.15-1.1-3.19C1020.81,619.78,1020.78,621,1021.05,622.08Z"
      transform="translate(-662.32 -248.35)" />
    <path d="M985.93,447.08l1.14-1.15Z" transform="translate(-662.32 -248.35)" />
    <path d="M962,646.92c1,.4,1,1.3,1.1,2.16A2.09,2.09,0,0,1,962,646.92Z" transform="translate(-662.32 -248.35)" />
    <path d="M960.92,645.92c.64.12.91.63,1.16,1.14A1.34,1.34,0,0,1,960.92,645.92Z"
      transform="translate(-662.32 -248.35)" />
    <path d="M945.93,445.07a1.21,1.21,0,0,1,1.13-1.14C947,444.61,946.7,445.08,945.93,445.07Z"
      transform="translate(-662.32 -248.35)" />
    <path d="M938,642.92c1,.39.8,1.39,1.1,2.14A2.32,2.32,0,0,1,938,642.92Z" transform="translate(-662.32 -248.35)" />
    <path d="M929.93,641.06c.33-1.13,1.46-.71,2.17-1.11Z" transform="translate(-662.32 -248.35)" />
    <path d="M940.92,645.06c.33-1.14,1.35-.92,2.16-1.11A2.36,2.36,0,0,1,940.92,645.06Z"
      transform="translate(-662.32 -248.35)" />
    <path d="M965,649.08c.23-.79,0-1.83,1.1-2.16A3.29,3.29,0,0,1,965,649.08Z" transform="translate(-662.32 -248.35)" />
    <path d="M965.93,647.07a1.21,1.21,0,0,1,1.14-1.14A1.19,1.19,0,0,1,965.93,647.07Z"
      transform="translate(-662.32 -248.35)" />
    <path d="M865.92,544.08l1.15-1.16A1.58,1.58,0,0,1,865.92,544.08Z" transform="translate(-662.32 -248.35)" />
  </g>
</svg>