<svg xmlns="http://www.w3.org/2000/svg" viewBox="0 0 240 518.86">
  <path
    d="M252,152v9c-.21.25-.52.47-.6.76-4.75,16.12-14.53,27.57-30.29,34.1-26.08,10.8-47.53,27.93-65.43,49.57-19.22,23.25-32.68,49.7-42.67,78C96.74,369.55,89.86,417.33,88,466q-.86,22.72.2,45.47a8.85,8.85,0,0,1-3.14,7.44c-4.9,4.54-10.76,6.38-17.35,6.43-9.45.08-17.85-3.36-26.22-7.23-4.32-2-7.21-4.42-6.76-9.69.19-2.1-.52-4.28-.77-6.43q-3.21-27.78-6.39-55.57c-2.54-22.16-5.14-44.31-7.55-66.49-2.25-20.69-4.18-41.41-6.48-62.09-.44-3.94,0-8-1.58-11.82v-5c1.91,0,2.9-1.51,4.13-2.53,12.06-10,23-21.23,33.86-32.54,20.06-21,39.37-42.58,58.52-64.36,2.29-2.61,4.55-5.25,7.07-8.17-6.15-1.87-11.89-3.51-17.56-5.37-19.88-6.51-38.87-14.84-55.63-27.64a82.19,82.19,0,0,1-18.72-19.28,9,9,0,0,1-1.41-7.52c2.09-9.42,3.88-18.91,6-28.32,1.31-5.81,2.05-11.76,4-17.56,32.17-4.31,64-9.63,95.92-15.1-1.08-1.64-2.55-1.31-3.79-1.39A185.49,185.49,0,0,1,95.75,67c-14.2-3.21-27.88-7.82-40.13-16-2.46-1.64-5-3.2-6.78-5.94C53,32.32,57.19,19.6,61.49,6.46,66.74,10,71.31,13.29,76.28,16c16,8.65,33.19,13.62,50.93,17a313.88,313.88,0,0,0,61.64,5.25c1.57,0,3.21-.32,5,.43-2.78,7-3.75,14-4.09,21.19s.27,14.59.34,22c-29.78,12.9-60.77,20.61-91.76,29.71,2,1.15,3.48.67,4.92.58,10.81-.68,21.62-1.32,32.41-2.17,17.11-1.34,34.2-2.85,51.3-4.21a8.22,8.22,0,0,0,6.26-3.48c2.61-3.37,5.45-6.57,8.13-9.76,1.37.63,1.6,1.67,2.06,2.54,7.25,13.94,17.43,25.09,31.18,32.89a27.82,27.82,0,0,1,4,3A41,41,0,0,1,252,152ZM68,134c-.18-.4-.38-.76-.92-.46.18.53.57.5,1,.36.43,1.92,2.29,2.23,3.62,3a249,249,0,0,0,39.7,18.48,273.85,273.85,0,0,0,29,9.35c9.36-11,18.62-21.93,28.51-33.58-9,1.27-16.92,2.39-24.83,3.19a333.06,333.06,0,0,1-62.75.91C76.89,134.9,72.52,133.59,68,134Z"
    transform="translate(-12 -6.46)" />
</svg>
